<?xml version="1.0" encoding="utf-8"?>
<!-- Generator: Adobe Illustrator 27.2.0, SVG Export Plug-In . SVG Version: 6.00 Build 0)  -->
<svg version="1.1" id="Layer_1" xmlns="http://www.w3.org/2000/svg" xmlns:xlink="http://www.w3.org/1999/xlink" x="0px" y="0px"
	 viewBox="0 0 330.8 297.1" style="enable-background:new 0 0 330.8 297.1;" xml:space="preserve">
<style type="text/css">
	.st0{fill:#C2E9F0;}
</style>
<path class="st0" d="M318.7,21.3c-30.1-32.7-106.8-26-178.2,8.3c0.1,0.1,0.1,0.1,0.1,0.1c-0.2,0.4-0.5,0.5-0.7,0.4
	c-0.1,0-0.1-0.1-0.2-0.1C93.1,52.5,48.8,86.8,21.3,129.6c0.4,0,0.7,0,1.1,0c0.5,0,0.9,0.5,0.9,1.1c0,0.7-0.2,1-0.8,1.2
	c-0.3,0.1-0.7,0-1,0.2c-1.2,0.6-1.3,0.7-1.8,0.2c-3.9,6.2-7.4,12.7-10.6,19.3c-23.4,49.3,1.4,87.7,40.9,112.6c0,0,0,0,0,0
	c0,0,0,0,0,0c59,37.3,150.8,44.6,163.4,13.8C234.2,226.5,371.7,79,318.7,21.3z M310,115.3c0.2-0.4,0.6-0.5,0.9-0.4
	c0.2,0,0.4-0.1,0.5,0c0.4,0.2,0.6,0.5,0.4,0.7c-0.1,0.2-0.2,0.3-0.4,0.4c-0.2,0-0.4,0-0.5,0C310.3,116.1,309.9,115.7,310,115.3z
	 M295.9,110.6c0.1,0.1,0.4,0.3,0.4,0.4c-0.2,0.4-0.5,0.5-0.7,0.4c-0.1-0.1-0.4-0.3-0.4-0.4C295.4,110.6,295.7,110.5,295.9,110.6z
	 M261,21.5c0.1,0.1,0.4,0.3,0.4,0.4c-0.2,0.4-0.5,0.5-0.7,0.4c-0.1-0.1-0.4-0.3-0.4-0.4C260.5,21.5,260.7,21.3,261,21.5z
	 M245.2,184.7c-0.2,0.1-0.5,0-0.7-0.4c0,0,0.2-0.2,0.4-0.4c0.3-0.1,0.5,0,0.7,0.4C245.6,184.4,245.3,184.6,245.2,184.7z
	 M253.5,147.1c0-0.1,0.2-0.3,0.4-0.4c0.2-0.1,0.5,0,0.8,0.4c0.2,0.3,0.5,0.5,0.8,0.8c0.1,0.1,0.2,0.3,0.3,0.4
	c-0.1,0.1-0.2,0.3-0.4,0.4c-0.5,0.2-1,0.2-1.5-0.1C253.2,148.2,253.5,147.6,253.5,147.1z M251.4,19.4c0.1-0.1,0.3-0.4,0.4-0.4
	c0.4,0.2,0.5,0.5,0.4,0.7c-0.1,0.1-0.3,0.4-0.4,0.4C251.4,19.9,251.2,19.6,251.4,19.4z M246.1,93.5c0,0,0.2,0.2,0.4,0.4
	c0.1,0.2,0,0.5-0.4,0.7c0,0-0.3-0.2-0.4-0.4C245.6,94,245.7,93.7,246.1,93.5z M243.9,68.7c0,0,0.3,0.2,0.4,0.4
	c0.1,0.2,0,0.5-0.4,0.7c0,0-0.2-0.2-0.4-0.4C243.4,69.2,243.5,68.9,243.9,68.7z M243.3,165.7c0-0.7,0.3-1.1,0.8-1.1
	c1.1-0.2,1.8,0.6,1.4,1.7c-0.3,0.5-0.8,0.7-1.4,0.6C243.6,166.8,243.2,166.3,243.3,165.7C243.3,165.8,243.3,165.7,243.3,165.7z
	 M242.5,19.2c0.2-0.1,0.5,0,0.7,0.4c0,0-0.2,0.2-0.4,0.4c-0.2,0.1-0.5,0-0.7-0.4C242.2,19.5,242.4,19.3,242.5,19.2z M241.2,228.1
	c0.1-0.1,0.3-0.4,0.4-0.4c0.4,0.2,0.5,0.5,0.4,0.7c-0.1,0.1-0.3,0.4-0.4,0.4C241.2,228.7,241.1,228.4,241.2,228.1z M239.5,37.3
	c0.1,0.1,0.4,0.3,0.4,0.4c-0.2,0.4-0.5,0.5-0.7,0.4c-0.1-0.1-0.4-0.3-0.4-0.4C239,37.3,239.3,37.1,239.5,37.3z M239.5,93.7
	c0.1,0.1,0.4,0.3,0.4,0.4c-0.2,0.4-0.5,0.5-0.7,0.4c-0.1-0.1-0.4-0.3-0.4-0.4C239,93.7,239.3,93.5,239.5,93.7z M234.6,41.8
	c0.6-0.3,0.8,0.4,1.1,0.7c0.3,0.2,0.7,0.5,0.7,0.8s-0.5,0.5-0.7,0.8c-0.1,0.1-0.3,0.2-0.4,0.4c-0.3,0.4-0.5,0.5-0.8,0.3
	c-0.3-0.2-0.5-0.6-0.4-0.9c0-0.2,0-0.4,0-0.5C234.3,42.8,234,42.1,234.6,41.8z M232,89c0-0.2,0-0.4,0-0.5c0.1-0.2,0.2-0.3,0.4-0.4
	c0.3-0.1,0.6,0,0.7,0.3c0,0,0,0.1,0,0.2c0.1,0.5,0.1,1.1,0,1.6c0.1,0.4,0,0.8-0.4,0.9c-0.4,0.2-0.7-0.3-0.7-1
	C232,89.7,232,89.3,232,89z M230.9,236.8c0.1,0.5-0.3,1-0.8,1.1c0,0,0,0-0.1,0c-0.9,0.1-1.4-0.3-1.4-1.1c-0.1-0.5,0.3-1,0.8-1.1
	c0,0,0,0,0.1,0C230.4,235.6,230.9,235.9,230.9,236.8z M228.8,198.8c0-0.1,0.1-0.1,0.1-0.1c0.1-0.1,0.3-0.1,0.4,0
	c0.6,0.2,0.6,1.5,0,1.9c-0.1,0.1-0.3,0-0.4,0C228.5,200.1,228.4,199.3,228.8,198.8z M223.9,20.2c1.1-0.1,1.6,0.5,1.3,1.7
	c0,0.1-0.2,0.3-0.4,0.4c-0.8-0.1-1-0.8-1.5-1.2c-0.1-0.1-0.2-0.2-0.3-0.4C223.3,20.5,223.6,20.2,223.9,20.2z M219,195.1
	c0,0,0.3,0.2,0.4,0.4c0.1,0.2,0,0.5-0.4,0.7c0,0-0.2-0.2-0.4-0.4C218.5,195.6,218.6,195.3,219,195.1z M37.2,229.8
	c-0.1-0.1-0.4-0.3-0.4-0.4c0.2-0.4,0.5-0.5,0.7-0.4c0.1,0.1,0.3,0.2,0.4,0.4C37.7,229.8,37.4,230,37.2,229.8z M42.8,182.4
	c-0.1-0.1-0.4-0.3-0.4-0.4c0.2-0.4,0.5-0.5,0.7-0.4c0.1,0.1,0.3,0.2,0.4,0.4C43.3,182.4,43.1,182.6,42.8,182.4z M52,257.1
	c0,0-0.3-0.2-0.4-0.4c-0.1-0.2,0-0.5,0.4-0.7c0,0,0.2,0.2,0.4,0.4C52.5,256.6,52.4,256.9,52,257.1z M87,268.4c0,0,0.2,0.2,0.4,0.4
	c0.1,0.3,0,0.5-0.4,0.7c0,0-0.3-0.2-0.4-0.4C86.5,268.9,86.6,268.6,87,268.4z M67.8,110.4c0,0,0.3,0.2,0.4,0.4
	c0.1,0.2,0,0.5-0.4,0.7c0,0-0.2-0.2-0.4-0.4C67.3,110.9,67.5,110.7,67.8,110.4z M60.1,226.5c-0.2,0.1-0.5,0-0.7-0.4
	c0,0,0.2-0.3,0.4-0.4c0.2-0.1,0.5,0,0.7,0.4C60.5,226.1,60.3,226.3,60.1,226.5z M67.8,237.9c-0.2-0.3-0.5-0.6-0.5-0.9
	c-0.1-0.5-0.1-1.1,0-1.6c0.1-0.3,0.4-0.6,0.5-0.9c0.2,0.3,0.4,0.6,0.5,0.9c0.1,0.4,0.1,0.8,0,1.1C68.5,237.1,68.3,237.6,67.8,237.9z
	 M77,73c-0.2,0.1-0.5,0-0.7-0.4c0,0,0.2-0.3,0.4-0.4c0.2-0.1,0.5,0,0.7,0.4C77.4,72.7,77.2,72.9,77,73z M78.4,265.8
	c-0.1,0.1-0.3,0.4-0.4,0.4c-0.4-0.2-0.5-0.5-0.4-0.7c0.1-0.1,0.3-0.4,0.4-0.4C78.4,265.2,78.5,265.5,78.4,265.8z M87.2,273.8
	c-0.4,0.4-0.8,0.8-1.2,1.1c-0.1,0.1-0.2,0-0.4-0.1c-0.3-0.2-0.4-0.5-0.4-0.9s0-0.8,0.4-0.9c0.3-0.1,0.7-0.2,1-0.2
	c0.3,0.1,0.6,0.3,0.9,0.5L87.2,273.8z M94,258c-0.1,0.1-0.3,0-0.4,0c-0.5-0.4-0.6-1.2-0.1-1.7c0,0,0.1-0.1,0.1-0.1
	c0.1-0.1,0.3-0.1,0.4,0C94.5,256.4,94.6,257.6,94,258z M95.1,260.3c-0.2,0.1-0.5,0-0.7-0.4c0,0,0.2-0.2,0.4-0.4
	c0.3-0.1,0.5,0,0.7,0.4C95.5,260,95.2,260.2,95.1,260.3z M104.1,92.2c-0.2,0.1-0.5,0-0.7-0.4c0,0,0.2-0.2,0.4-0.4
	c0.2-0.1,0.5,0,0.7,0.4C104.5,91.9,104.3,92.1,104.1,92.2z M103.6,59.3C103.6,59.3,103.6,59.3,103.6,59.3c-0.2-0.4,0.3-0.8,1-0.8
	c0.2,0,0.4,0,0.5,0c0.2,0.1,0.3,0.2,0.4,0.4c0.1,0.2,0,0.5-0.4,0.7c-0.2,0-0.4,0-0.5,0C104.1,59.8,103.7,59.6,103.6,59.3z
	 M105.4,236.8c-0.3-0.1-0.6-0.3-0.9-0.5c0.1-0.1,0.2-0.3,0.4-0.4c0.5-0.3,1-0.3,1.5,0c0.1,0.1,0.3,0.2,0.4,0.4
	C106.8,236.5,105.9,236.9,105.4,236.8z M109.8,163.3c-0.2,0.1-0.5,0-0.7-0.4c0,0,0.2-0.3,0.4-0.4c0.2-0.1,0.5,0,0.7,0.4
	C110.2,162.9,109.9,163.1,109.8,163.3z M110.5,132.8c-0.1-0.1-0.4-0.3-0.4-0.4c0.2-0.4,0.5-0.5,0.7-0.4c0.1,0.1,0.3,0.2,0.4,0.4
	C111,132.8,110.8,132.9,110.5,132.8z M113.9,49.3c-0.1-0.1-0.4-0.3-0.4-0.4c0.2-0.4,0.5-0.5,0.7-0.4c0.1,0.1,0.3,0.2,0.4,0.4
	C114.4,49.3,114.2,49.4,113.9,49.3z M122.6,271.8c0.1,0.4-0.1,0.8-0.4,0.9c-0.6,0.4-0.9,1.2-0.8,1.9c0,0.1-0.2,0.3-0.4,0.4
	c-0.3,0.1-0.6-0.1-0.7-0.4c0,0,0-0.1,0-0.1c-0.1-0.7-0.1-1.5,0-2.2c0-0.4,0-0.7,0-1.1c-0.2-1.1,0.5-1.6,1.1-2.3
	c0.3-0.4,0.5-0.5,0.8-0.3c0.3,0.2,0.4,0.6,0.3,1C122.5,270.3,122.5,271.1,122.6,271.8z M127.5,199.4c-0.1-0.1-0.4-0.3-0.4-0.4
	c0.2-0.4,0.5-0.5,0.7-0.4c0.1,0.1,0.3,0.2,0.4,0.4C128,199.4,127.7,199.5,127.5,199.4z M165.1,59.8c0.1,0.1,0.4,0.3,0.4,0.4
	c-0.2,0.4-0.5,0.5-0.7,0.4c-0.1-0.1-0.4-0.3-0.4-0.4C164.5,59.8,164.8,59.7,165.1,59.8z M164.5,167.2c0-0.1,0.1-0.1,0.1-0.1
	c0.1-0.1,0.3-0.1,0.4,0c0.6,0.2,0.6,1.5,0,1.9c-0.1,0.1-0.3,0-0.4,0C164.2,168.5,164.1,167.7,164.5,167.2z M149.4,199.2
	c-0.1,0.1-0.2,0.3-0.4,0.4c-0.4-0.2-0.5-0.5-0.4-0.7c0.1-0.1,0.3-0.4,0.4-0.4C149.5,198.7,149.6,198.9,149.4,199.2z M150,94.4
	c-0.1-0.1-0.4-0.3-0.4-0.4c0.2-0.4,0.5-0.5,0.7-0.4c0.1,0.1,0.4,0.3,0.4,0.4C150.5,94.5,150.3,94.6,150,94.4z M153.4,24.9
	c0.3-0.1,0.5,0,0.7,0.4c0,0-0.2,0.3-0.4,0.4c-0.2,0.1-0.5,0-0.7-0.4C153,25.2,153.3,25,153.4,24.9z M153.4,168.9
	c-0.1-0.1-0.4-0.3-0.4-0.4c0.2-0.4,0.5-0.5,0.7-0.4c0.1,0.1,0.4,0.3,0.4,0.4C153.9,168.9,153.7,169,153.4,168.9z M162.4,241.1
	c-0.1-0.1-0.4-0.3-0.4-0.4c0.2-0.4,0.5-0.5,0.7-0.4c0.1,0.1,0.4,0.3,0.4,0.4C162.9,241.1,162.7,241.2,162.4,241.1z M164,193.9
	c-0.3-0.1-0.6-0.3-0.9-0.5c0.1-0.1,0.2-0.3,0.4-0.4c0.1-0.1,0.3-0.1,0.5-0.2c0.2,0,0.4,0,0.5,0c0.3,0.1,0.6,0.3,0.8,0.6
	C165.5,193.6,164.6,194,164,193.9z M166,201.8c-0.2-0.1-0.3-0.2-0.4-0.3c-0.1-0.3-0.2-0.6-0.2-1c-0.1-0.4,0.1-0.7,0.5-0.8
	c0.2,0,0.5,0.3,0.6,0.6c0.1,0.3,0.1,0.7,0,1C166.7,201.8,166.6,202,166,201.8z M167.2,203.9c-0.2,0-0.5-0.3-0.6-0.6
	c-0.1-0.3-0.1-0.7,0-1c-0.2-0.5,0-0.7,0.5-0.5c0.2,0.1,0.3,0.2,0.4,0.3c0.1,0.3,0.2,0.6,0.2,1C167.8,203.5,167.6,203.8,167.2,203.9z
	 M174.3,284.9c-0.1,0.1-0.3,0.4-0.4,0.4c-0.4-0.2-0.5-0.5-0.4-0.7c0.1-0.1,0.3-0.4,0.4-0.4C174.3,284.4,174.4,284.7,174.3,284.9z
	 M176.5,196.9c-0.1,0.1-0.3,0.4-0.4,0.4c-0.4-0.2-0.5-0.5-0.4-0.7c0.1-0.1,0.3-0.4,0.4-0.4C176.5,196.4,176.7,196.7,176.5,196.9z
	 M178.8,111.2c-0.1,0.1-0.2,0.3-0.4,0.4c-0.4-0.2-0.5-0.5-0.4-0.7c0.1-0.1,0.3-0.4,0.4-0.4C178.8,110.7,178.9,110.9,178.8,111.2z
	 M180.9,227.6c-0.2,0.1-0.5,0-0.7-0.4c0,0,0.2-0.2,0.4-0.4c0.3-0.1,0.5,0,0.7,0.4C181.2,227.3,181,227.5,180.9,227.6z M187.1,59.6
	c-0.9,0.1-1.3-0.3-1.4-1.1c0-0.4,0-0.7,0.4-0.9c0.3-0.1,0.5,0,0.8,0.4c0.2,0.3,0.5,0.5,0.8,0.8c0.1,0.1,0.2,0.3,0.3,0.4
	C187.7,59.3,187.4,59.5,187.1,59.6z M188.8,111.4c-0.2,0.1-0.5,0-0.7-0.4c0,0,0.2-0.2,0.4-0.4c0.2-0.1,0.5,0,0.7,0.4
	C189.1,111,188.9,111.3,188.8,111.4z M195.5,224.2c-0.3,0.1-0.5,0-0.7-0.4c0,0,0.2-0.3,0.4-0.4c0.2-0.1,0.5,0,0.7,0.4
	C195.9,223.9,195.7,224.1,195.5,224.2z M203.4,191.5c-0.1,0.1-0.3,0.1-0.5,0.2c-0.6,0.1-1.4-0.3-1.4-0.6c0.1-0.2,0.2-0.3,0.4-0.4
	c0.3-0.1,0.7-0.2,1-0.2c0.2,0,0.3,0.1,0.5,0.2c0.1,0.1,0.4,0.2,0.4,0.4S203.6,191.4,203.4,191.5z M204.6,71.8c-0.1,0.1-0.3,0-0.4,0
	c-0.5-0.4-0.6-1.2-0.2-1.7c0-0.1,0.1-0.1,0.1-0.1c0.1-0.1,0.3-0.1,0.4,0C205.1,70.2,205.1,71.5,204.6,71.8z"/>
</svg>
