<?xml version="1.0" encoding="utf-8"?>
<!-- Generator: Adobe Illustrator 27.2.0, SVG Export Plug-In . SVG Version: 6.00 Build 0)  -->
<svg version="1.1" id="Layer_1" xmlns="http://www.w3.org/2000/svg" xmlns:xlink="http://www.w3.org/1999/xlink" x="0px" y="0px"
	 viewBox="0 0 286.8 281.9" style="enable-background:new 0 0 286.8 281.9;" xml:space="preserve">
<path d="M9.8,15.3c-45.7,49.7,82.1,99.9,90.7,220.8c8.6,120.9,237.5-27,175.8-108.8S55.5-34.3,9.8,15.3z M15.4,63.1
	c-0.2,0.1-0.5,0-0.7-0.4c0,0,0.2-0.3,0.4-0.4c0.2-0.1,0.5,0,0.7,0.4C15.8,62.8,15.5,63,15.4,63.1z M42.4,82.3
	c-0.2,0.1-0.5,0-0.7-0.4c0,0,0.2-0.2,0.4-0.4c0.2-0.1,0.5,0,0.7,0.4C42.8,82,42.6,82.2,42.4,82.3z M43.3,49.7c-0.2,0-0.4,0-0.5,0
	c-0.4,0.2-0.8,0-0.9-0.4c0,0,0,0,0,0c-0.2-0.4,0.3-0.7,1-0.7c0.2,0,0.4,0,0.5,0c0.2,0.1,0.3,0.2,0.4,0.4
	C43.9,49.3,43.8,49.5,43.3,49.7z M52.2,39.4c-0.1-0.1-0.4-0.3-0.4-0.4c0.2-0.4,0.5-0.5,0.7-0.4c0.1,0.1,0.3,0.2,0.4,0.4
	C52.7,39.4,52.5,39.5,52.2,39.4z M277.1,189.9c0.1,0.1,0.4,0.3,0.4,0.4c-0.2,0.4-0.5,0.5-0.7,0.4c-0.1-0.1-0.4-0.3-0.4-0.4
	C276.6,189.8,276.9,189.7,277.1,189.9z M263.6,152.6c0.1,0.1,0.4,0.3,0.4,0.4c-0.2,0.4-0.5,0.5-0.7,0.4c-0.1-0.1-0.4-0.3-0.4-0.4
	C263.1,152.6,263.4,152.5,263.6,152.6z M258.5,174.2c0.1-0.1,0.3-0.4,0.4-0.4c0.4,0.2,0.5,0.5,0.4,0.7c-0.1,0.1-0.3,0.4-0.4,0.4
	C258.5,174.8,258.4,174.5,258.5,174.2z M182.4,223.3c-0.2,0.1-0.5,0-0.7-0.4c0,0,0.2-0.3,0.4-0.4c0.2-0.1,0.5,0,0.7,0.4
	C182.7,223,182.5,223.2,182.4,223.3z M183.5,174.8c-0.2,0.1-0.5,0-0.7-0.4c0,0,0.2-0.2,0.4-0.4c0.3-0.1,0.5,0,0.7,0.4
	C183.9,174.5,183.6,174.7,183.5,174.8z M250.6,133.6c0.1-0.1,0.3-0.4,0.4-0.4c0.4,0.2,0.5,0.5,0.4,0.7c-0.1,0.1-0.2,0.3-0.4,0.4
	C250.6,134.1,250.5,133.9,250.6,133.6z M248.4,105.4c0.2-0.4,0.6-0.5,0.9-0.4c0.2,0,0.4-0.1,0.5,0c0.4,0.2,0.6,0.5,0.4,0.7
	c-0.1,0.2-0.2,0.3-0.4,0.4c-0.2,0-0.4,0-0.5,0C248.6,106.2,248.2,105.8,248.4,105.4z M243.7,135c0-0.1,0.2-0.3,0.4-0.4
	c0.2-0.1,0.5,0,0.7,0.2c0,0.1,0,0.1,0,0.2c0.1,1.5,0,3,0,4.4c0,0.1-0.2,0.3-0.4,0.4c-0.2,0.1-0.5,0-0.7-0.2c0-0.1,0-0.1,0-0.2
	c-0.1-0.9-0.1-1.8,0-2.8C243.7,136.1,243.6,135.5,243.7,135z M234.3,100.7c0.1,0.1,0.4,0.3,0.4,0.4c-0.2,0.4-0.5,0.5-0.7,0.4
	c-0.1-0.1-0.4-0.3-0.4-0.4C233.8,100.7,234,100.6,234.3,100.7z M224.5,175.6c0.1-0.4,0.5-0.6,0.7-0.4c0.2,0.1,0.4,0.2,0.4,0.4
	c0.1,0.7,0.1,1.5,0,2.2c0,0.3-0.3,0.5-0.5,0.5c-0.1,0-0.1,0-0.2,0c-0.2-0.1-0.4-0.2-0.4-0.4c0-0.4,0-0.7,0-1.1
	C224.4,176.4,224.5,176,224.5,175.6z M213.2,243.3c0.1-0.1,0.2-0.3,0.3-0.4c0.1-0.1,0.3-0.2,0.3-0.1c0.4,0.2,0.5,0.4,0.2,0.7
	c-0.2,0.3-0.6,0.4-0.9,0.3C213.2,243.8,213.2,243.5,213.2,243.3z M212.7,243.8c0.5-0.2,0.7,0,0.5,0.5c-0.2,0.2-0.4,0.4-0.7,0.5
	c0,0-0.3-0.3-0.3-0.3C212.3,244.2,212.5,244,212.7,243.8z M200.6,228.8c0.1-0.1,0.2-0.3,0.4-0.4l0.4-0.4c0.2,0.3,0.5,0.5,0.6,0.8
	c0.2,0.9-0.2,1.4-1.1,1.4c-0.4,0-0.7,0-1.1,0c-0.7,0-1.2-0.4-1-0.7c0.2-0.4,0.6-0.5,0.9-0.4C200,229.3,200.4,229.1,200.6,228.8z
	 M199.3,203.4c0.4,0.2,0.5,0.6,0.4,0.9c0,0.2,0.1,0.4,0,0.5c-0.2,0.4-0.5,0.6-0.7,0.4c-0.2-0.1-0.3-0.2-0.4-0.4c0-0.2,0-0.4,0-0.5
	C198.5,203.7,198.9,203.2,199.3,203.4z M191.8,137.2c0-0.1,0.2-0.3,0.4-0.4c0.2-0.1,0.5,0,0.8,0.4c0.2,0.3,0.5,0.5,0.8,0.8
	c0.1,0.1,0.2,0.3,0.3,0.4c-0.1,0.1-0.2,0.3-0.4,0.4c-0.5,0.2-1,0.2-1.5-0.1C191.6,138.3,191.8,137.7,191.8,137.2z M186.7,257.4
	c0,0,0.3,0.2,0.4,0.4c0.1,0.2,0,0.5-0.4,0.7c0,0-0.2-0.2-0.4-0.4C186.2,257.9,186.3,257.6,186.7,257.4z M184.4,83.6
	c0,0,0.2,0.2,0.4,0.4c0.1,0.2,0,0.5-0.4,0.7c0,0-0.3-0.2-0.4-0.4C183.9,84.1,184.1,83.8,184.4,83.6z M182.2,58.8
	c0,0,0.3,0.2,0.4,0.4c0.1,0.2,0,0.5-0.4,0.7c0,0-0.2-0.2-0.4-0.4C181.7,59.3,181.8,59,182.2,58.8z M181.6,155.8
	c0-0.7,0.3-1.1,0.8-1.1c1.1-0.2,1.8,0.6,1.4,1.7c-0.3,0.5-0.8,0.7-1.4,0.6C181.9,156.9,181.6,156.4,181.6,155.8
	C181.6,155.9,181.6,155.8,181.6,155.8z M180.9,259.8c0.1,0,0.3,0,0.4,0c0.1,0.1,0.3,0.2,0.3,0.4c0.1,0.4,0.1,0.7,0,1.1
	c0,0.1-0.2,0.3-0.4,0.4c-0.1,0-0.3,0-0.4,0C180.3,261.3,180.3,260.1,180.9,259.8z M179.5,218.3c0.1-0.1,0.3-0.4,0.4-0.4
	c0.4,0.2,0.5,0.5,0.4,0.7c-0.1,0.1-0.3,0.4-0.4,0.4C179.5,218.8,179.4,218.5,179.5,218.3z M177.9,83.8c0.1,0.1,0.4,0.3,0.4,0.4
	c-0.2,0.4-0.5,0.5-0.7,0.4c-0.1-0.1-0.4-0.3-0.4-0.4C177.3,83.8,177.6,83.6,177.9,83.8z M170.3,79.1c0-0.2,0-0.4,0-0.5
	c0.1-0.2,0.2-0.3,0.4-0.4c0.3-0.1,0.6,0,0.7,0.3c0,0,0,0.1,0,0.2c0.1,0.5,0.1,1.1,0,1.6c0.1,0.4,0,0.8-0.4,0.9
	c-0.4,0.2-0.7-0.3-0.7-1C170.3,79.8,170.3,79.4,170.3,79.1z M169.2,226.9c0.1,0.5-0.3,1-0.8,1.1c0,0,0,0-0.1,0
	c-0.9,0.1-1.4-0.3-1.4-1.1c-0.1-0.5,0.3-1,0.8-1.1c0,0,0,0,0.1,0C168.7,225.7,169.2,226.1,169.2,226.9z M167.2,188.9
	c0-0.1,0.1-0.1,0.1-0.1c0.1-0.1,0.3-0.1,0.4,0c0.6,0.2,0.6,1.5,0,1.9c-0.1,0.1-0.3,0-0.4,0C166.8,190.2,166.7,189.4,167.2,188.9z
	 M157.4,185.2c0,0,0.3,0.2,0.4,0.4c0.1,0.2,0,0.5-0.4,0.7c0,0-0.2-0.2-0.4-0.4C156.9,185.7,157,185.4,157.4,185.2z M142.3,60.3
	c0-0.1,0.1-0.1,0.1-0.1c0.1-0.1,0.3-0.1,0.4,0c0.6,0.2,0.6,1.5,0,1.9c-0.1,0.1-0.3,0-0.4,0C142,61.6,141.9,60.8,142.3,60.3z
	 M140.3,180.8c0.3-0.1,0.7-0.2,1-0.2c0.2,0,0.3,0.1,0.5,0.2c0.1,0.1,0.4,0.2,0.4,0.4s-0.2,0.3-0.4,0.4c-0.1,0.1-0.3,0.1-0.5,0.2
	c-0.6,0.1-1.4-0.3-1.4-0.6C139.9,181,140.1,180.9,140.3,180.8z M133.5,213.6c0.2-0.1,0.5,0,0.7,0.4c0,0-0.2,0.2-0.4,0.4
	c-0.3,0.1-0.5,0-0.7-0.4C133.1,213.9,133.3,213.6,133.5,213.6z M126.7,100.7c0.2-0.1,0.5,0,0.7,0.4c0,0-0.2,0.3-0.4,0.4
	c-0.2,0.1-0.5,0-0.7-0.4C126.3,101,126.6,100.8,126.7,100.7z M124.4,47.7c0.3-0.1,0.5,0,0.8,0.4c0.2,0.3,0.5,0.5,0.8,0.8
	c0.1,0.1,0.2,0.3,0.3,0.4c-0.3,0.2-0.6,0.4-0.9,0.5c-0.9,0.1-1.3-0.3-1.4-1.1C124,48.2,124.1,47.9,124.4,47.7z M118.8,216.9
	c0.3-0.1,0.5,0,0.7,0.4c0,0-0.2,0.3-0.4,0.4c-0.2,0.1-0.5,0-0.7-0.4C118.4,217.3,118.7,217.1,118.8,216.9z M116.4,100.9
	c0.1-0.1,0.3-0.4,0.4-0.4c0.4,0.2,0.5,0.5,0.4,0.7c-0.1,0.1-0.2,0.3-0.4,0.4C116.4,101.4,116.2,101.1,116.4,100.9z M114.1,186.7
	c0.1-0.1,0.3-0.4,0.4-0.4c0.4,0.2,0.5,0.5,0.4,0.7c-0.1,0.1-0.3,0.4-0.4,0.4C114.1,187.2,114,186.9,114.1,186.7z M105.4,191.9
	c0.2,0.1,0.3,0.2,0.4,0.3c0.1,0.3,0.2,0.6,0.2,1c0.1,0.4-0.1,0.7-0.5,0.8c-0.2,0-0.5-0.3-0.6-0.6c-0.1-0.3-0.1-0.7,0-1
	C104.7,191.9,104.9,191.7,105.4,191.9z M104.2,189.8c0.2,0,0.5,0.3,0.6,0.6c0.1,0.3,0.1,0.7,0,1c0.2,0.5,0,0.7-0.5,0.5
	c-0.2-0.1-0.3-0.2-0.4-0.3c-0.1-0.3-0.2-0.6-0.2-1C103.7,190.3,103.9,189.9,104.2,189.8z M103.4,49.9c0.1,0.1,0.4,0.3,0.4,0.4
	c-0.2,0.4-0.5,0.5-0.7,0.4c-0.1-0.1-0.4-0.3-0.4-0.4C102.9,49.9,103.1,49.8,103.4,49.9z M102.9,157.3c0-0.1,0.1-0.1,0.1-0.1
	c0.1-0.1,0.3-0.1,0.4,0c0.6,0.2,0.6,1.5,0,1.9c-0.1,0.1-0.3,0-0.4,0C102.5,158.6,102.4,157.8,102.9,157.3z M101.9,183.1
	c0.1-0.1,0.3-0.1,0.5-0.2c0.2,0,0.4,0,0.5,0c0.3,0.1,0.6,0.3,0.8,0.6c0.1,0.2-0.8,0.7-1.4,0.5c-0.3-0.1-0.6-0.3-0.9-0.5
	C101.6,183.3,101.7,183.2,101.9,183.1z M101.1,230.5c0.1,0.1,0.4,0.3,0.4,0.4c-0.2,0.4-0.5,0.5-0.7,0.4c-0.1-0.1-0.4-0.3-0.4-0.4
	C100.6,230.5,100.9,230.3,101.1,230.5z M91.7,159c-0.1-0.1-0.4-0.3-0.4-0.4c0.2-0.4,0.5-0.5,0.7-0.4c0.1,0.1,0.4,0.3,0.4,0.4
	C92.2,159,92,159.1,91.7,159z M91.7,15c0.3-0.1,0.5,0,0.7,0.4c0,0-0.2,0.3-0.4,0.4c-0.2,0.1-0.5,0-0.7-0.4
	C91.3,15.3,91.6,15.1,91.7,15z M88.7,83.8c0.1,0.1,0.4,0.3,0.4,0.4c-0.2,0.4-0.5,0.5-0.7,0.4c-0.1-0.1-0.4-0.3-0.4-0.4
	C88.2,83.8,88.5,83.6,88.7,83.8z M78.6,19.5c0.1,0.1,0.4,0.3,0.4,0.4c-0.2,0.4-0.5,0.5-0.7,0.4c-0.1-0.1-0.4-0.3-0.4-0.4
	C78,19.5,78.3,19.3,78.6,19.5z"/>
</svg>
