<?xml version="1.0" encoding="utf-8"?>
<!-- Generator: Adobe Illustrator 27.2.0, SVG Export Plug-In . SVG Version: 6.00 Build 0)  -->
<svg version="1.1" id="Layer_1" xmlns="http://www.w3.org/2000/svg" xmlns:xlink="http://www.w3.org/1999/xlink" x="0px" y="0px"
	 viewBox="0 0 252.6 382.9" style="enable-background:new 0 0 252.6 382.9;" xml:space="preserve">
<path d="M195,313.9c5.1-20,7.7-41.2,13-61.1c-0.1,0-0.2,0-0.2,0c-0.2-0.1-0.3-0.2-0.4-0.4c0-0.2,0-0.4,0-0.5c0-0.7,0.4-1.2,0.7-1
	c0.1,0.1,0.2,0.2,0.3,0.3c3.7-13.5,8.8-26.3,16.8-37.9c7.4-10.7,17.3-19.9,22.5-31.8c5.3-12.3,5.2-26.2,4.3-39.5
	c-1.6-24.2-17.8-110.7-41.7-128.2S145.6,0.4,145.6,0.4s-13.5,1-31.9,6c-0.1,0.2-0.3,0.4-0.4,0.6c-0.2,0.2-0.9,0-1.2-0.2
	c-30.5,8.4-73.6,27.3-93,68.8c-31.6,67.9-18.3,144.5,0,196.4c0,0,5.2,17.8,14.6,38.5c0.1,0,0.2,0,0.3,0c0.3,0.1,0.6,0.3,0.9,0.5
	l-0.4,0.4c-0.1,0.1-0.2,0.1-0.2,0.2c7.1,15.3,16.5,31.9,28,43.9c27.2,28.5,54.4,32.5,87.6,22S186.3,348.1,195,313.9z M243.2,148.2
	c0.1,0.1,0.4,0.3,0.4,0.4c-0.2,0.4-0.5,0.5-0.7,0.4c-0.1-0.1-0.4-0.3-0.4-0.4C242.7,148.2,243,148.1,243.2,148.2z M208.2,59.1
	c0.1,0.1,0.4,0.3,0.4,0.4c-0.2,0.4-0.5,0.5-0.7,0.4c-0.1-0.1-0.4-0.3-0.4-0.4C207.7,59.1,208,59,208.2,59.1z M204.1,12.6
	c0.5,0.1,1.2-0.2,1.6,0.1c0.6,0.4,1.1,0.9,1.6,1.4c0.1,0.1,0,0.2,0.1,0.3c-0.5,0.6-1,1.1-1.6,1.6c-0.3,0.2-0.7,0.2-1,0
	c-0.6-0.4-1.1-0.9-1.5-1.5c-0.3-0.4-0.3-1,0-1.5C203.3,12.7,203.7,12.5,204.1,12.6z M202.6,9.5c0.1,0.1,0.4,0.3,0.4,0.4
	c-0.2,0.4-0.5,0.5-0.7,0.4c-0.1-0.1-0.4-0.3-0.4-0.4C202.1,9.5,202.3,9.3,202.6,9.5z M200.7,184.7c0-0.1,0.2-0.3,0.4-0.4
	c0.2-0.1,0.5,0,0.8,0.4c0.2,0.3,0.5,0.5,0.8,0.8c0.1,0.1,0.2,0.3,0.3,0.4c-0.1,0.1-0.2,0.3-0.4,0.4c-0.5,0.2-1,0.2-1.5-0.1
	C200.5,185.8,200.7,185.2,200.7,184.7z M198.6,57c0.1-0.1,0.3-0.4,0.4-0.4c0.4,0.2,0.5,0.5,0.4,0.7c-0.1,0.1-0.3,0.4-0.4,0.4
	C198.6,57.6,198.5,57.3,198.6,57z M195.6,304.9c0,0,0.3,0.2,0.4,0.4c0.1,0.2,0,0.5-0.4,0.7c0,0-0.2-0.2-0.4-0.4
	C195.1,305.4,195.2,305.1,195.6,304.9z M191.3,270.9c-0.2,0.1-0.5,0-0.7-0.4c0,0,0.2-0.3,0.4-0.4c0.2-0.1,0.5,0,0.7,0.4
	C191.7,270.5,191.4,270.7,191.3,270.9z M192.4,222.3c-0.2,0.1-0.5,0-0.7-0.4c0,0,0.2-0.2,0.4-0.4c0.3-0.1,0.5,0,0.7,0.4
	C192.8,222,192.6,222.2,192.4,222.3z M193.4,131.2c0,0,0.2,0.2,0.4,0.4c0.1,0.2,0,0.5-0.4,0.7c0,0-0.3-0.2-0.4-0.4
	C192.8,131.6,193,131.4,193.4,131.2z M191.1,106.3c0,0,0.3,0.2,0.4,0.4c0.1,0.2,0,0.5-0.4,0.7c0,0-0.2-0.2-0.4-0.4
	C190.6,106.8,190.7,106.5,191.1,106.3z M190.5,203.4c0-0.7,0.3-1.1,0.8-1.1c1.1-0.2,1.8,0.6,1.4,1.7c-0.3,0.5-0.8,0.7-1.4,0.6
	C190.9,204.4,190.5,203.9,190.5,203.4C190.5,203.4,190.5,203.4,190.5,203.4z M189.8,56.9c0.2-0.1,0.5,0,0.7,0.4c0,0-0.2,0.2-0.4,0.4
	c-0.2,0.1-0.5,0-0.7-0.4C189.4,57.2,189.6,56.9,189.8,56.9z M189.8,307.3c0.1,0,0.3,0,0.4,0c0.1,0.1,0.3,0.2,0.3,0.4
	c0.1,0.4,0.1,0.7,0,1.1c0,0.1-0.2,0.3-0.4,0.4c-0.1,0-0.3,0-0.4,0C189.2,308.8,189.2,307.6,189.8,307.3z M188.5,265.8
	c0.1-0.1,0.3-0.4,0.4-0.4c0.4,0.2,0.5,0.5,0.4,0.7c-0.1,0.1-0.3,0.4-0.4,0.4C188.5,266.3,188.3,266,188.5,265.8z M186.8,74.9
	c0.1,0.1,0.4,0.3,0.4,0.4c-0.2,0.4-0.5,0.5-0.7,0.4c-0.1-0.1-0.4-0.3-0.4-0.4C186.3,74.9,186.5,74.8,186.8,74.9z M186.8,131.3
	c0.1,0.1,0.4,0.3,0.4,0.4c-0.2,0.4-0.5,0.5-0.7,0.4c-0.1-0.1-0.4-0.3-0.4-0.4C186.3,131.3,186.5,131.2,186.8,131.3z M181.9,79.5
	c0.6-0.3,0.8,0.4,1.1,0.7c0.3,0.2,0.7,0.5,0.7,0.8s-0.5,0.5-0.7,0.8c-0.1,0.1-0.3,0.2-0.4,0.4c-0.3,0.4-0.5,0.5-0.8,0.3
	c-0.3-0.2-0.5-0.6-0.4-0.9c0-0.2,0-0.4,0-0.5C181.6,80.4,181.3,79.8,181.9,79.5z M179.3,126.6c0-0.2,0-0.4,0-0.5
	c0.1-0.2,0.2-0.3,0.4-0.4c0.3-0.1,0.6,0,0.7,0.3c0,0,0,0.1,0,0.2c0.1,0.5,0.1,1.1,0,1.6c0.1,0.4,0,0.8-0.4,0.9
	c-0.4,0.2-0.7-0.3-0.7-1C179.3,127.3,179.3,127,179.3,126.6z M178.1,274.4c0.1,0.5-0.3,1-0.8,1.1c0,0,0,0-0.1,0
	c-0.9,0.1-1.4-0.3-1.4-1.1c-0.1-0.5,0.3-1,0.8-1.1c0,0,0,0,0.1,0C177.6,273.2,178.1,273.6,178.1,274.4z M176.1,236.4
	c0-0.1,0.1-0.1,0.1-0.1c0.1-0.1,0.3-0.1,0.4,0c0.6,0.2,0.6,1.5,0,1.9c-0.1,0.1-0.3,0-0.4,0C175.7,237.7,175.7,236.9,176.1,236.4z
	 M15.1,149.2c0,0-0.2-0.2-0.4-0.4c-0.1-0.3,0-0.5,0.4-0.7c0,0,0.3,0.2,0.4,0.4C15.6,148.7,15.5,148.9,15.1,149.2z M24.3,110.6
	c-0.2,0.1-0.5,0-0.7-0.4c0,0,0.2-0.3,0.4-0.4c0.2-0.1,0.5,0,0.7,0.4C24.7,110.3,24.4,110.5,24.3,110.6z M34.2,307.1
	c0,0-0.3-0.2-0.4-0.4c-0.1-0.2,0-0.5,0.4-0.7c0,0,0.2,0.2,0.4,0.4C34.8,306.7,34.6,306.9,34.2,307.1z M41.2,295.7
	c-0.1,0.1-0.3,0-0.4,0c-0.5-0.4-0.6-1.2-0.1-1.7c0,0,0.1-0.1,0.1-0.1c0.1-0.1,0.3-0.1,0.4,0C41.8,294,41.8,295.3,41.2,295.7z
	 M42.3,297.9c-0.2,0.1-0.5,0-0.7-0.4c0,0,0.2-0.2,0.4-0.4c0.3-0.1,0.5,0,0.7,0.4C42.7,297.6,42.5,297.8,42.3,297.9z M51.4,129.8
	c-0.2,0.1-0.5,0-0.7-0.4c0,0,0.2-0.2,0.4-0.4c0.2-0.1,0.5,0,0.7,0.4C51.8,129.5,51.5,129.7,51.4,129.8z M50.8,96.9
	C50.8,96.9,50.8,96.9,50.8,96.9c-0.2-0.4,0.3-0.8,1-0.8c0.2,0,0.4,0,0.5,0c0.2,0.1,0.3,0.2,0.4,0.4c0.1,0.2,0,0.5-0.4,0.7
	c-0.2,0-0.4,0-0.5,0C51.4,97.4,51,97.3,50.8,96.9z M52.6,274.4c-0.3-0.1-0.6-0.3-0.9-0.5c0.1-0.1,0.2-0.3,0.4-0.4
	c0.5-0.3,1-0.3,1.5,0c0.1,0.1,0.3,0.2,0.4,0.4C54,274.2,53.2,274.5,52.6,274.4z M57,200.9c-0.2,0.1-0.5,0-0.7-0.4
	c0,0,0.2-0.3,0.4-0.4c0.2-0.1,0.5,0,0.7,0.4C57.4,200.6,57.1,200.8,57,200.9z M57.8,170.4c-0.1-0.1-0.4-0.3-0.4-0.4
	c0.2-0.4,0.5-0.5,0.7-0.4c0.1,0.1,0.3,0.2,0.4,0.4C58.3,170.4,58,170.6,57.8,170.4z M61.2,86.9c-0.1-0.1-0.4-0.3-0.4-0.4
	c0.2-0.4,0.5-0.5,0.7-0.4c0.1,0.1,0.3,0.2,0.4,0.4C61.7,86.9,61.4,87.1,61.2,86.9z M63,35.2c0,0.8-0.5,1.2-1.4,1.1
	c-0.3,0-0.6-0.3-0.9-0.5c0.1-0.1,0.2-0.3,0.3-0.4c0.3-0.2,0.5-0.5,0.8-0.8c0.3-0.4,0.5-0.5,0.8-0.4C63,34.5,63.2,34.9,63,35.2z
	 M112.3,97.5c0.1,0.1,0.4,0.3,0.4,0.4c-0.2,0.4-0.5,0.5-0.7,0.4c-0.1-0.1-0.4-0.3-0.4-0.4C111.8,97.5,112.1,97.3,112.3,97.5z
	 M111.8,204.8c0-0.1,0.1-0.1,0.1-0.1c0.1-0.1,0.3-0.1,0.4,0c0.6,0.2,0.6,1.5,0,1.9c-0.1,0.1-0.3,0-0.4,0
	C111.4,206.1,111.3,205.4,111.8,204.8z M110.8,230.6c0.1-0.1,0.3-0.1,0.5-0.2c0.2,0,0.4,0,0.5,0c0.3,0.1,0.6,0.3,0.8,0.6
	c0.1,0.2-0.8,0.7-1.4,0.5c-0.3-0.1-0.6-0.3-0.9-0.5C110.5,230.8,110.7,230.7,110.8,230.6z M69.8,309.4c0.1,0.4-0.1,0.8-0.4,0.9
	c-0.6,0.4-0.9,1.2-0.8,1.9c0,0.1-0.2,0.3-0.4,0.4c-0.3,0.1-0.6-0.1-0.7-0.4c0,0,0-0.1,0-0.1c-0.1-0.7-0.1-1.5,0-2.2
	c0-0.4,0-0.7,0-1.1c-0.2-1.1,0.5-1.6,1.1-2.3c0.3-0.4,0.5-0.5,0.8-0.3c0.3,0.2,0.4,0.6,0.3,1C69.8,308,69.8,308.7,69.8,309.4z
	 M74.7,237c-0.1-0.1-0.4-0.3-0.4-0.4c0.2-0.4,0.5-0.5,0.7-0.4c0.1,0.1,0.3,0.2,0.4,0.4C75.2,237,74.9,237.1,74.7,237z M87.1,67.7
	c-0.1-0.1-0.4-0.3-0.4-0.4c0.2-0.4,0.5-0.5,0.7-0.4c0.1,0.1,0.4,0.3,0.4,0.4C87.6,67.8,87.3,67.9,87.1,67.7z M96.7,236.8
	c-0.1,0.1-0.2,0.3-0.4,0.4c-0.4-0.2-0.5-0.5-0.4-0.7c0.1-0.1,0.3-0.4,0.4-0.4C96.7,236.3,96.8,236.6,96.7,236.8z M97.3,132.1
	c-0.1-0.1-0.4-0.3-0.4-0.4c0.2-0.4,0.5-0.5,0.7-0.4c0.1,0.1,0.4,0.3,0.4,0.4C97.8,132.1,97.5,132.2,97.3,132.1z M98.4,39.5
	c-0.1-0.1-0.4-0.3-0.4-0.4c0.2-0.4,0.5-0.5,0.7-0.4c0.1,0.1,0.4,0.3,0.4,0.4C98.9,39.6,98.6,39.7,98.4,39.5z M100.6,62.5
	c0.3-0.1,0.5,0,0.7,0.4c0,0-0.2,0.3-0.4,0.4c-0.2,0.1-0.5,0-0.7-0.4C100.3,62.8,100.5,62.6,100.6,62.5z M100.6,206.5
	c-0.1-0.1-0.4-0.3-0.4-0.4c0.2-0.4,0.5-0.5,0.7-0.4c0.1,0.1,0.4,0.3,0.4,0.4C101.2,206.5,100.9,206.7,100.6,206.5z M103.5,15.7
	c-0.1,0.1-0.3,0.4-0.4,0.4c-0.4-0.2-0.5-0.5-0.4-0.7c0.1-0.1,0.3-0.4,0.4-0.4C103.5,15.1,103.6,15.4,103.5,15.7z M110,278
	c0.1,0.1,0.4,0.3,0.4,0.4c-0.2,0.4-0.5,0.5-0.7,0.4c-0.1-0.1-0.4-0.3-0.4-0.4C109.5,278,109.8,277.9,110,278z M114.7,361
	c-0.2,0.3-0.6,0.5-0.9,0.4c-0.2,0-0.4,0-0.5,0c-0.2,0-0.4,0-0.5,0c-1.5,0.3-2.4-0.5-3.2-1.5c-0.2-0.2,0-0.6,0.4-0.7
	c1.4-0.3,1.4-0.3,1.9-0.8c0.4-0.5,1.2-0.6,1.7-0.2c0.2,0.2,0.3,0.4,0.4,0.6c0,0.2-0.1,0.4,0,0.5c0.1,0.3,0.3,0.6,0.6,0.9
	C114.7,360.5,114.9,360.7,114.7,361z M114.5,241.6c-0.2,0-0.5-0.3-0.6-0.6c-0.1-0.3-0.1-0.7,0-1c-0.1-0.3-0.1-0.4,0-0.5
	c-0.1,0.1-0.3,0.1-0.5,0c-0.2-0.1-0.3-0.2-0.4-0.3c-0.1-0.3-0.2-0.6-0.2-1c-0.1-0.4,0.1-0.7,0.5-0.8c0.2,0,0.5,0.3,0.6,0.6
	c0.1,0.3,0.1,0.7,0,1c0.1,0.3,0.1,0.4,0,0.5c0.1-0.1,0.3-0.1,0.5,0c0.2,0.1,0.3,0.2,0.4,0.3c0.1,0.3,0.2,0.6,0.2,1
	C115,241.1,114.8,241.5,114.5,241.6z M120.4,7.8c-0.1,0.1-0.2,0.3-0.4,0.4c-0.4-0.3-0.5-0.5-0.4-0.7C119.7,7.2,120,7,120,7
	C120.4,7.2,120.5,7.5,120.4,7.8z M121.5,322.6c-0.1,0.1-0.3,0.4-0.4,0.4c-0.4-0.2-0.5-0.5-0.4-0.7c0.1-0.1,0.3-0.4,0.4-0.4
	C121.5,322.1,121.6,322.3,121.5,322.6z M121.3,27.1c-0.2,0.1-0.5,0-0.7-0.4c0,0,0.2-0.3,0.4-0.4c0.2-0.1,0.5,0,0.7,0.4
	C121.7,26.8,121.5,27,121.3,27.1z M123.8,234.6c-0.1,0.1-0.3,0.4-0.4,0.4c-0.4-0.2-0.5-0.5-0.4-0.7c0.1-0.1,0.3-0.4,0.4-0.4
	C123.8,234,123.9,234.3,123.8,234.6z M126,148.8c-0.1,0.1-0.2,0.3-0.4,0.4c-0.4-0.2-0.5-0.5-0.4-0.7c0.1-0.1,0.3-0.4,0.4-0.4
	C126,148.3,126.2,148.6,126,148.8z M128.1,265.2c-0.2,0.1-0.5,0-0.7-0.4c0,0,0.2-0.2,0.4-0.4c0.3-0.1,0.5,0,0.7,0.4
	C128.5,264.9,128.2,265.1,128.1,265.2z M130,40.7c-0.1-0.1-0.4-0.3-0.4-0.4c0.2-0.4,0.5-0.5,0.7-0.4c0.1,0.1,0.3,0.2,0.4,0.4
	C130.5,40.7,130.2,40.8,130,40.7z M133,96.2c0-0.4,0-0.7,0.4-0.9c0.3-0.1,0.5,0,0.8,0.4c0.2,0.3,0.5,0.5,0.8,0.8
	c0.1,0.1,0.2,0.3,0.3,0.4c-0.3,0.2-0.6,0.4-0.9,0.5C133.4,97.4,133,97,133,96.2z M134.9,378.1c-0.2,0.1-0.5,0-0.7-0.4
	c0,0,0.2-0.3,0.4-0.4c0.2-0.1,0.5,0,0.7,0.4C135.2,377.7,135,377.9,134.9,378.1z M136,149c-0.2,0.1-0.5,0-0.7-0.4
	c0,0,0.2-0.2,0.4-0.4c0.2-0.1,0.5,0,0.7,0.4C136.4,148.7,136.1,148.9,136,149z M136.4,41.4c-0.2,0.4-0.5,0.6-0.7,0.4
	c-0.2-0.1-0.3-0.2-0.4-0.4c0-0.2,0-0.4,0-0.5c0-0.7,0.4-1.2,0.7-1c0.4,0.2,0.5,0.6,0.4,0.9C136.3,41,136.4,41.2,136.4,41.4z
	 M138.9,38.6c-0.2,0-0.4,0-0.5,0l-0.9-0.6c0.3-0.2,0.6-0.4,0.9-0.6c0.2-0.1,0.4-0.1,0.5,0c0.3,0.2,0.6,0.3,0.9,0.6
	C139.5,38.2,139.2,38.4,138.9,38.6z M142.8,261.8c-0.3,0.1-0.5,0-0.7-0.4c0,0,0.2-0.3,0.4-0.4c0.2-0.1,0.5,0,0.7,0.4
	C143.2,261.5,142.9,261.7,142.8,261.8z M150.7,229.1c-0.1,0.1-0.3,0.1-0.5,0.2c-0.6,0.1-1.4-0.3-1.4-0.6c0.1-0.2,0.2-0.3,0.4-0.4
	c0.3-0.1,0.7-0.2,1-0.2c0.2,0,0.3,0.1,0.5,0.2c0.1,0.1,0.4,0.2,0.4,0.4S150.8,229,150.7,229.1z M151.8,109.5c-0.1,0.1-0.3,0-0.4,0
	c-0.5-0.4-0.6-1.2-0.2-1.7c0-0.1,0.1-0.1,0.1-0.1c0.1-0.1,0.3-0.1,0.4,0C152.4,107.9,152.4,109.1,151.8,109.5z M155.2,21.5
	c-0.2,0.1-0.5,0-0.7-0.4c0,0,0.2-0.3,0.4-0.4c0.2-0.1,0.5,0,0.7,0.4C155.6,21.2,155.3,21.4,155.2,21.5z M159.9,38.2
	c-0.1,0.1-0.3,0.4-0.4,0.4c-0.4-0.2-0.5-0.5-0.4-0.7c0.1-0.1,0.3-0.4,0.4-0.4C159.9,37.7,160,38,159.9,38.2z M166.3,232.7
	c0,0,0.3,0.2,0.4,0.4c0.1,0.2,0,0.5-0.4,0.7c0,0-0.2-0.2-0.4-0.4C165.8,233.2,165.9,232.9,166.3,232.7z M166.6,330.5
	c-0.1,0.1-0.3,0.4-0.4,0.4c-0.4-0.2-0.5-0.5-0.4-0.7c0.1-0.1,0.3-0.4,0.4-0.4C166.7,330,166.8,330.2,166.6,330.5z M172.5,59.5
	c0,0.1-0.2,0.3-0.4,0.4c-0.8-0.1-1-0.8-1.5-1.2c-0.1-0.1-0.2-0.2-0.3-0.4c0.3-0.2,0.6-0.5,0.9-0.5C172.2,57.7,172.7,58.3,172.5,59.5
	z"/>
</svg>
