<?xml version="1.0" encoding="utf-8"?>
<!-- Generator: Adobe Illustrator 27.2.0, SVG Export Plug-In . SVG Version: 6.00 Build 0)  -->
<svg version="1.1" id="Layer_1" xmlns="http://www.w3.org/2000/svg" xmlns:xlink="http://www.w3.org/1999/xlink" x="0px" y="0px"
	 viewBox="0 0 370.2 257" style="enable-background:new 0 0 370.2 257;" xml:space="preserve">
<style type="text/css">
	.st0{fill:#C2E9F0;}
</style>
<path class="st0" d="M334.3,216.1C446.4,138.8,264.4-29.6,220.6,4.5C176.8,38.6-16,97.5,1.1,174S222.1,293.4,334.3,216.1z
	 M341.7,175.2c-0.2,0.4-0.5,0.5-0.7,0.4c-0.1-0.1-0.4-0.3-0.4-0.4c0.2-0.4,0.5-0.5,0.7-0.4C341.4,174.9,341.7,175.1,341.7,175.2z
	 M338.6,83.5C338.6,83.5,338.6,83.5,338.6,83.5c0.3-0.3,0.6-0.6,0.8-0.8c0.6-0.6,0.6-0.6,1.2,0c0.9,0.9,0.8,0.9,0.2,2
	c-0.1,0.3-0.2,0.7-0.2,1c-0.3,1.1-0.4,1.1-1,0.5c-0.3-0.3-0.5-0.5-0.8-0.8C338.2,84.9,338.1,84.1,338.6,83.5z M246.5,208.3
	c-0.2,0.1-0.5,0-0.7-0.4c0,0,0.2-0.3,0.4-0.4c0.2-0.1,0.5,0,0.7,0.4C246.9,207.9,246.6,208.1,246.5,208.3z M247.6,159.7
	c-0.2,0.1-0.5,0-0.7-0.4c0,0,0.2-0.2,0.4-0.4c0.3-0.1,0.5,0,0.7,0.4C248,159.4,247.8,159.7,247.6,159.7z M327.8,137.6
	c0.1,0.1,0.4,0.3,0.4,0.4c-0.2,0.4-0.5,0.5-0.7,0.4c-0.1-0.1-0.4-0.3-0.4-0.4C327.2,137.5,327.5,137.4,327.8,137.6z M322.7,159.2
	c0.1-0.1,0.3-0.4,0.4-0.4c0.4,0.2,0.5,0.5,0.4,0.7c-0.1,0.1-0.3,0.4-0.4,0.4C322.7,159.7,322.6,159.4,322.7,159.2z M314.8,118.6
	c0.1-0.1,0.3-0.4,0.4-0.4c0.4,0.2,0.5,0.5,0.4,0.7c-0.1,0.1-0.2,0.3-0.4,0.4C314.8,119.1,314.6,118.8,314.8,118.6z M312.5,90.4
	c0.2-0.4,0.6-0.5,0.9-0.4c0.2,0,0.4-0.1,0.5,0c0.4,0.2,0.6,0.5,0.4,0.7c-0.1,0.2-0.2,0.3-0.4,0.4c-0.2,0-0.4,0-0.5,0
	C312.8,91.1,312.3,90.8,312.5,90.4z M307.8,119.9c0-0.1,0.2-0.3,0.4-0.4c0.2-0.1,0.5,0,0.7,0.2c0,0.1,0,0.1,0,0.2c0.1,1.5,0,3,0,4.4
	c0,0.1-0.2,0.3-0.4,0.4c-0.2,0.1-0.5,0-0.7-0.2c0-0.1,0-0.1,0-0.2c-0.1-0.9-0.1-1.8,0-2.8C307.8,121,307.8,120.5,307.8,119.9z
	 M298.4,85.7c0.1,0.1,0.4,0.3,0.4,0.4c-0.2,0.4-0.5,0.5-0.7,0.4c-0.1-0.1-0.4-0.3-0.4-0.4C297.9,85.6,298.2,85.5,298.4,85.7z
	 M288.7,160.6c0.1-0.4,0.5-0.6,0.7-0.4c0.2,0.1,0.4,0.2,0.4,0.4c0.1,0.7,0.1,1.5,0,2.2c0,0.3-0.3,0.5-0.5,0.5c-0.1,0-0.1,0-0.2,0
	c-0.2-0.1-0.4-0.2-0.4-0.4c0-0.4,0-0.7,0-1.1C288.6,161.3,288.6,160.9,288.7,160.6z M277.4,228.3c0.1-0.1,0.2-0.3,0.3-0.4
	c0.1-0.1,0.3-0.2,0.3-0.1c0.4,0.2,0.5,0.4,0.2,0.7c-0.2,0.3-0.6,0.4-0.9,0.3C277.3,228.7,277.3,228.4,277.4,228.3z M276.9,228.8
	c0.5-0.2,0.7,0,0.5,0.5c-0.2,0.2-0.4,0.4-0.7,0.5c0,0-0.3-0.3-0.3-0.3C276.5,229.2,276.6,229,276.9,228.8z M264.7,213.8
	c0.1-0.1,0.2-0.3,0.4-0.4l0.4-0.4c0.2,0.3,0.5,0.5,0.6,0.8c0.2,0.9-0.2,1.4-1.1,1.4c-0.4,0-0.7,0-1.1,0c-0.7,0-1.2-0.4-1-0.7
	c0.2-0.4,0.6-0.5,0.9-0.4C264.1,214.2,264.5,214.1,264.7,213.8z M263.4,188.3c0.4,0.2,0.5,0.6,0.4,0.9c0,0.2,0.1,0.4,0,0.5
	c-0.2,0.4-0.5,0.6-0.7,0.4c-0.2-0.1-0.3-0.2-0.4-0.4c0-0.2,0-0.4,0-0.5C262.7,188.6,263,188.1,263.4,188.3z M255.9,122.1
	c0-0.1,0.2-0.3,0.4-0.4c0.2-0.1,0.5,0,0.8,0.4c0.2,0.3,0.5,0.5,0.8,0.8c0.1,0.1,0.2,0.3,0.3,0.4c-0.1,0.1-0.2,0.3-0.4,0.4
	c-0.5,0.2-1,0.2-1.5-0.1C255.7,123.2,256,122.6,255.9,122.1z M250.9,242.3c0,0,0.3,0.2,0.4,0.4c0.1,0.2,0,0.5-0.4,0.7
	c0,0-0.2-0.2-0.4-0.4C250.3,242.8,250.5,242.5,250.9,242.3z M248.6,68.6c0,0,0.2,0.2,0.4,0.4c0.1,0.2,0,0.5-0.4,0.7
	c0,0-0.3-0.2-0.4-0.4C248.1,69.1,248.2,68.8,248.6,68.6z M246.3,43.7c0,0,0.3,0.2,0.4,0.4c0.1,0.2,0,0.5-0.4,0.7
	c0,0-0.2-0.2-0.4-0.4C245.8,44.2,245.9,44,246.3,43.7z M245.8,140.8c0-0.7,0.3-1.1,0.8-1.1c1.1-0.2,1.8,0.6,1.4,1.7
	c-0.3,0.5-0.8,0.7-1.4,0.6C246.1,141.8,245.7,141.4,245.8,140.8C245.8,140.8,245.8,140.8,245.8,140.8z M245,244.8c0.1,0,0.3,0,0.4,0
	c0.1,0.1,0.3,0.2,0.3,0.4c0.1,0.4,0.1,0.7,0,1.1c0,0.1-0.2,0.3-0.4,0.4c-0.1,0-0.3,0-0.4,0C244.4,246.2,244.4,245,245,244.8z
	 M243.7,203.2c0.1-0.1,0.3-0.4,0.4-0.4c0.4,0.2,0.5,0.5,0.4,0.7c-0.1,0.1-0.3,0.4-0.4,0.4C243.7,203.7,243.6,203.4,243.7,203.2z
	 M242,12.3c0.1,0.1,0.4,0.3,0.4,0.4c-0.2,0.4-0.5,0.5-0.7,0.4c-0.1-0.1-0.4-0.3-0.4-0.4C241.5,12.3,241.8,12.2,242,12.3z M242,68.7
	c0.1,0.1,0.4,0.3,0.4,0.4c-0.2,0.4-0.5,0.5-0.7,0.4c-0.1-0.1-0.4-0.3-0.4-0.4C241.5,68.7,241.8,68.6,242,68.7z M237.1,16.9
	c0.6-0.3,0.8,0.4,1.1,0.7c0.3,0.2,0.7,0.5,0.7,0.8s-0.5,0.5-0.7,0.8c-0.1,0.1-0.3,0.2-0.4,0.4c-0.3,0.4-0.5,0.5-0.8,0.3
	c-0.3-0.2-0.5-0.6-0.4-0.9c0-0.2,0-0.4,0-0.5C236.8,17.8,236.5,17.2,237.1,16.9z M234.5,64c0-0.2,0-0.4,0-0.5
	c0.1-0.2,0.2-0.3,0.4-0.4c0.3-0.1,0.6,0,0.7,0.3c0,0,0,0.1,0,0.2c0.1,0.5,0.1,1.1,0,1.6c0.1,0.4,0,0.8-0.4,0.9
	c-0.4,0.2-0.7-0.3-0.7-1C234.5,64.8,234.5,64.4,234.5,64z M233.4,211.9c0.1,0.5-0.3,1-0.8,1.1c0,0,0,0-0.1,0
	c-0.9,0.1-1.4-0.3-1.4-1.1c-0.1-0.5,0.3-1,0.8-1.1c0,0,0,0,0.1,0C232.9,210.6,233.3,211,233.4,211.9z M231.3,173.8
	c0-0.1,0.1-0.1,0.1-0.1c0.1-0.1,0.3-0.1,0.4,0c0.6,0.2,0.6,1.5,0,1.9c-0.1,0.1-0.3,0-0.4,0C231,175.1,230.9,174.4,231.3,173.8z
	 M221.5,170.1c0,0,0.3,0.2,0.4,0.4c0.1,0.2,0,0.5-0.4,0.7c0,0-0.2-0.2-0.4-0.4C221,170.6,221.1,170.3,221.5,170.1z M206.5,45.2
	c0-0.1,0.1-0.1,0.1-0.1c0.1-0.1,0.3-0.1,0.4,0c0.6,0.2,0.6,1.5,0,1.9c-0.1,0.1-0.3,0-0.4,0C206.1,46.5,206.1,45.7,206.5,45.2z
	 M204.4,165.8c0.3-0.1,0.7-0.2,1-0.2c0.2,0,0.3,0.1,0.5,0.2c0.1,0.1,0.4,0.2,0.4,0.4s-0.2,0.3-0.4,0.4c-0.1,0.1-0.3,0.1-0.5,0.2
	c-0.6,0.1-1.4-0.3-1.4-0.6C204.1,166,204.2,165.8,204.4,165.8z M197.6,198.5c0.2-0.1,0.5,0,0.7,0.4c0,0-0.2,0.2-0.4,0.4
	c-0.3,0.1-0.5,0-0.7-0.4C197.2,198.8,197.5,198.6,197.6,198.5z M190.9,85.7c0.2-0.1,0.5,0,0.7,0.4c0,0-0.2,0.3-0.4,0.4
	c-0.2,0.1-0.5,0-0.7-0.4C190.5,86,190.7,85.8,190.9,85.7z M188.6,32.6c0.3-0.1,0.5,0,0.8,0.4c0.2,0.3,0.5,0.5,0.8,0.8
	c0.1,0.1,0.2,0.3,0.3,0.4c-0.3,0.2-0.6,0.4-0.9,0.5c-0.9,0.1-1.3-0.3-1.4-1.1C188.2,33.2,188.2,32.9,188.6,32.6z M167.5,34.9
	c0.1,0.1,0.4,0.3,0.4,0.4c-0.2,0.4-0.5,0.5-0.7,0.4c-0.1-0.1-0.4-0.3-0.4-0.4C167,34.9,167.3,34.8,167.5,34.9z M167,142.2
	c0-0.1,0.1-0.1,0.1-0.1c0.1-0.1,0.3-0.1,0.4,0c0.6,0.2,0.6,1.5,0,1.9c-0.1,0.1-0.3,0-0.4,0C166.6,143.5,166.6,142.8,167,142.2z
	 M70.3,85.5c0,0,0.3,0.2,0.4,0.4c0.1,0.2,0,0.5-0.4,0.7c0,0-0.2-0.2-0.4-0.4C69.8,86,69.9,85.7,70.3,85.5z M39.7,204.9
	c-0.1-0.1-0.4-0.3-0.4-0.4c0.2-0.4,0.5-0.5,0.7-0.4c0.1,0.1,0.3,0.2,0.4,0.4C40.2,204.9,39.9,205,39.7,204.9z M45.3,157.5
	c-0.1-0.1-0.4-0.3-0.4-0.4c0.2-0.4,0.5-0.5,0.7-0.4c0.1,0.1,0.3,0.2,0.4,0.4C45.8,157.5,45.5,157.6,45.3,157.5z M62.6,201.5
	c-0.2,0.1-0.5,0-0.7-0.4c0,0,0.2-0.3,0.4-0.4c0.2-0.1,0.5,0,0.7,0.4C63,201.2,62.7,201.4,62.6,201.5z M70.3,213
	c-0.2-0.3-0.5-0.6-0.5-0.9c-0.1-0.5-0.1-1.1,0-1.6c0.1-0.3,0.4-0.6,0.5-0.9c0.2,0.3,0.4,0.6,0.5,0.9c0.1,0.4,0.1,0.8,0,1.1
	C71,212.1,70.7,212.7,70.3,213z M96.5,233.1c-0.1,0.1-0.3,0-0.4,0c-0.5-0.4-0.6-1.2-0.1-1.7c0,0,0.1-0.1,0.1-0.1
	c0.1-0.1,0.3-0.1,0.4,0C97,231.5,97,232.7,96.5,233.1z M97.6,235.3c-0.2,0.1-0.5,0-0.7-0.4c0,0,0.2-0.2,0.4-0.4
	c0.3-0.1,0.5,0,0.7,0.4C98,235,97.7,235.3,97.6,235.3z M106.6,67.2c-0.2,0.1-0.5,0-0.7-0.4c0,0,0.2-0.2,0.4-0.4
	c0.2-0.1,0.5,0,0.7,0.4C107,66.9,106.7,67.1,106.6,67.2z M107.8,211.8c-0.3-0.1-0.6-0.3-0.9-0.5c0.1-0.1,0.2-0.3,0.4-0.4
	c0.5-0.3,1-0.3,1.5,0c0.1,0.1,0.3,0.2,0.4,0.4C109.2,211.6,108.4,212,107.8,211.8z M112.2,138.3c-0.2,0.1-0.5,0-0.7-0.4
	c0,0,0.2-0.3,0.4-0.4c0.2-0.1,0.5,0,0.7,0.4C112.6,138,112.4,138.2,112.2,138.3z M113,107.8c-0.1-0.1-0.4-0.3-0.4-0.4
	c0.2-0.4,0.5-0.5,0.7-0.4c0.1,0.1,0.3,0.2,0.4,0.4C113.5,107.8,113.2,108,113,107.8z M125,246.8c0.1,0.4-0.1,0.8-0.4,0.9
	c-0.6,0.4-0.9,1.2-0.8,1.9c0,0.1-0.2,0.3-0.4,0.4c-0.3,0.1-0.6-0.1-0.7-0.4c0,0,0-0.1,0-0.1c-0.1-0.7-0.1-1.5,0-2.2
	c0-0.4,0-0.7,0-1.1c-0.2-1.1,0.5-1.6,1.1-2.3c0.3-0.4,0.5-0.5,0.8-0.3c0.3,0.2,0.4,0.6,0.3,1C125,245.4,125,246.1,125,246.8z
	 M129.9,174.4c-0.1-0.1-0.4-0.3-0.4-0.4c0.2-0.4,0.5-0.5,0.7-0.4c0.1,0.1,0.3,0.2,0.4,0.4C130.4,174.4,130.2,174.6,129.9,174.4z
	 M151.9,174.2c-0.1,0.1-0.2,0.3-0.4,0.4c-0.4-0.2-0.5-0.5-0.4-0.7c0.1-0.1,0.3-0.4,0.4-0.4C151.9,173.7,152.1,174,151.9,174.2z
	 M152.5,69.5c-0.1-0.1-0.4-0.3-0.4-0.4c0.2-0.4,0.5-0.5,0.7-0.4c0.1,0.1,0.4,0.3,0.4,0.4C153,69.5,152.7,69.6,152.5,69.5z
	 M155.9,144c-0.1-0.1-0.4-0.3-0.4-0.4c0.2-0.4,0.5-0.5,0.7-0.4c0.1,0.1,0.4,0.3,0.4,0.4C156.4,144,156.1,144.1,155.9,144z
	 M164.9,216.2c-0.1-0.1-0.4-0.3-0.4-0.4c0.2-0.4,0.5-0.5,0.7-0.4c0.1,0.1,0.4,0.3,0.4,0.4C165.4,216.2,165.2,216.3,164.9,216.2z
	 M166.5,168.9c-0.3-0.1-0.6-0.3-0.9-0.5c0.1-0.1,0.2-0.3,0.4-0.4c0.1-0.1,0.3-0.1,0.5-0.2c0.2,0,0.4,0,0.5,0
	c0.3,0.1,0.6,0.3,0.8,0.6C168,168.6,167.1,169.1,166.5,168.9z M168.5,176.9c-0.2-0.1-0.3-0.2-0.4-0.3c-0.1-0.3-0.2-0.6-0.2-1
	c-0.1-0.4,0.1-0.7,0.5-0.8c0.2,0,0.5,0.3,0.6,0.6c0.1,0.3,0.1,0.7,0,1C169.2,176.9,169,177.1,168.5,176.9z M169.7,179
	c-0.2,0-0.5-0.3-0.6-0.6c-0.1-0.3-0.1-0.7,0-1c-0.2-0.5,0-0.7,0.5-0.5c0.2,0.1,0.3,0.2,0.4,0.3c0.1,0.3,0.2,0.6,0.2,1
	C170.2,178.5,170,178.9,169.7,179z M179,172c-0.1,0.1-0.3,0.4-0.4,0.4c-0.4-0.2-0.5-0.5-0.4-0.7c0.1-0.1,0.3-0.4,0.4-0.4
	C179,171.5,179.1,171.7,179,172z M181.3,86.2c-0.1,0.1-0.2,0.3-0.4,0.4c-0.4-0.2-0.5-0.5-0.4-0.7c0.1-0.1,0.3-0.4,0.4-0.4
	C181.3,85.7,181.4,86,181.3,86.2z M183.3,202.6c-0.2,0.1-0.5,0-0.7-0.4c0,0,0.2-0.2,0.4-0.4c0.3-0.1,0.5,0,0.7,0.4
	C183.7,202.3,183.5,202.5,183.3,202.6z"/>
</svg>
