<?xml version="1.0" encoding="utf-8"?>
<!-- Generator: Adobe Illustrator 27.2.0, SVG Export Plug-In . SVG Version: 6.00 Build 0)  -->
<svg version="1.1" id="Layer_1" xmlns="http://www.w3.org/2000/svg" xmlns:xlink="http://www.w3.org/1999/xlink" x="0px" y="0px"
	 viewBox="0 0 286.8 281.9" style="enable-background:new 0 0 286.8 281.9;" xml:space="preserve">
<path d="M202.7,278.1C202.7,278,202.7,278,202.7,278.1c0.2,0,0.2,0,0.3,0.1c31.9,7.1,59.1,4.7,74.1-11.6
	c29.1-31.7-12.3-63.6-48.3-113.9c-0.2,0.1-0.5,0.1-0.8,0.1c-0.5-0.1-0.9-0.5-0.9-1.1c0,0,0,0,0-0.1c0-0.4,0.1-0.7,0.3-0.9
	c-18.2-25.7-34.7-56.2-39.8-93.7c0,0,0-0.1,0-0.1c-0.5-3.7-0.9-7.4-1.2-11.2c-8.6-120.9-237.5,27-175.8,108.8
	C52,209.5,137.2,263.5,202.7,278.1z M260,267c0,0,0.1-0.1,0.1-0.1c0.1-0.1,0.3-0.1,0.4,0c0.6,0.2,0.6,1.5,0,1.9
	c-0.1,0.1-0.3,0-0.4,0C259.6,268.3,259.5,267.6,260,267z M258.6,239.1c0.1-0.1,0.2-0.3,0.3-0.4c0.1-0.1,0.3-0.2,0.3-0.1
	c0.4,0.2,0.5,0.4,0.2,0.7c-0.2,0.3-0.6,0.4-0.9,0.3C258.6,239.6,258.6,239.3,258.6,239.1z M258.1,239.7c0.5-0.2,0.7,0,0.5,0.5
	c-0.2,0.2-0.4,0.4-0.7,0.5c0,0-0.3-0.3-0.3-0.3C257.7,240,257.9,239.8,258.1,239.7z M246,224.6c0.1-0.1,0.2-0.3,0.4-0.4l0.4-0.4
	c0.2,0.3,0.5,0.5,0.6,0.8c0.2,0.9-0.2,1.4-1.1,1.4c-0.4,0-0.7,0-1.1,0c-0.7,0-1.2-0.4-1-0.7c0.2-0.4,0.6-0.5,0.9-0.4
	C245.4,225.1,245.8,224.9,246,224.6z M244.7,199.2c0.4,0.2,0.5,0.6,0.4,0.9c0,0.2,0.1,0.4,0,0.5c-0.2,0.4-0.5,0.6-0.7,0.4
	c-0.2-0.1-0.3-0.2-0.4-0.4c0-0.2,0-0.4,0-0.5C244,199.5,244.3,199,244.7,199.2z M232.1,253.2c0,0,0.3,0.2,0.4,0.4
	c0.1,0.2,0,0.5-0.4,0.7c0,0-0.2-0.2-0.4-0.4C231.6,253.7,231.7,253.4,232.1,253.2z M228.5,169.9c0.3-0.1,0.5,0,0.7,0.4
	c0,0-0.2,0.3-0.4,0.4c-0.2,0.1-0.5,0-0.7-0.4C228.1,170.2,228.4,170,228.5,169.9z M227.4,218.4c0.2-0.1,0.5,0,0.7,0.4
	c0,0-0.2,0.2-0.4,0.4c-0.2,0.1-0.5,0-0.7-0.4C227,218.7,227.3,218.5,227.4,218.4z M226.3,255.6c0.1,0,0.3,0,0.4,0
	c0.1,0.1,0.3,0.2,0.3,0.4c0.1,0.4,0.1,0.7,0,1.1c0,0.1-0.2,0.3-0.4,0.4c-0.1,0-0.3,0-0.4,0C225.7,257.1,225.7,255.9,226.3,255.6z
	 M225,214.1c0.1-0.1,0.3-0.4,0.4-0.4c0.4,0.2,0.5,0.5,0.4,0.7c-0.1,0.1-0.3,0.4-0.4,0.4C224.9,214.6,224.8,214.3,225,214.1z
	 M214.6,222.7c0.1,0.5-0.3,1-0.8,1.1c0,0,0,0-0.1,0c-0.9,0.1-1.4-0.3-1.4-1.1c-0.1-0.5,0.3-1,0.8-1.1c0,0,0,0,0.1,0
	C214.1,221.5,214.6,221.9,214.6,222.7z M212.6,184.7c0-0.1,0.1-0.1,0.1-0.1c0.1-0.1,0.3-0.1,0.4,0c0.6,0.2,0.6,1.5,0,1.9
	c-0.1,0.1-0.3,0-0.4,0C212.2,186,212.1,185.2,212.6,184.7z M202.8,181c0,0,0.3,0.2,0.4,0.4c0.1,0.2,0,0.5-0.4,0.7
	c0,0-0.2-0.2-0.4-0.4C202.3,181.5,202.4,181.2,202.8,181z M185.7,176.6c0.3-0.1,0.7-0.2,1-0.2c0.2,0,0.3,0.1,0.5,0.2
	c0.1,0.1,0.4,0.2,0.4,0.4s-0.2,0.3-0.4,0.4c-0.1,0.1-0.3,0.1-0.5,0.2c-0.6,0.1-1.4-0.3-1.4-0.6C185.3,176.8,185.5,176.7,185.7,176.6
	z M178.9,209.4c0.2-0.1,0.5,0,0.7,0.4c0,0-0.2,0.2-0.4,0.4c-0.3,0.1-0.5,0-0.7-0.4C178.5,209.7,178.7,209.5,178.9,209.4z
	 M172.1,96.5c0.2-0.1,0.5,0,0.7,0.4c0,0-0.2,0.3-0.4,0.4c-0.2,0.1-0.5,0-0.7-0.4C171.7,96.8,172,96.6,172.1,96.5z M169.8,43.5
	c0.3-0.1,0.5,0,0.8,0.4c0.2,0.3,0.5,0.5,0.8,0.8c0.1,0.1,0.2,0.3,0.3,0.4c-0.3,0.2-0.6,0.4-0.9,0.5c-0.9,0.1-1.3-0.3-1.4-1.1
	C169.4,44,169.5,43.7,169.8,43.5z M164.2,212.7c0.3-0.1,0.5,0,0.7,0.4c0,0-0.2,0.3-0.4,0.4c-0.2,0.1-0.5,0-0.7-0.4
	C163.8,213.1,164.1,212.9,164.2,212.7z M161.8,96.7c0.1-0.1,0.3-0.4,0.4-0.4c0.4,0.2,0.5,0.5,0.4,0.7c-0.1,0.1-0.2,0.3-0.4,0.4
	C161.8,97.2,161.6,96.9,161.8,96.7z M159.5,182.5c0.1-0.1,0.3-0.4,0.4-0.4c0.4,0.2,0.5,0.5,0.4,0.7c-0.1,0.1-0.3,0.4-0.4,0.4
	C159.5,183,159.4,182.7,159.5,182.5z M150.8,187.7c0.2,0.1,0.3,0.2,0.4,0.3c0.1,0.3,0.2,0.6,0.2,1c0.1,0.4-0.1,0.7-0.5,0.8
	c-0.2,0-0.5-0.3-0.6-0.6c-0.1-0.3-0.1-0.7,0-1C150.1,187.7,150.3,187.5,150.8,187.7z M149.6,185.6c0.2,0,0.5,0.3,0.6,0.6
	c0.1,0.3,0.1,0.7,0,1c0.2,0.5,0,0.7-0.5,0.5c-0.2-0.1-0.3-0.2-0.4-0.3c-0.1-0.3-0.2-0.6-0.2-1C149.1,186.1,149.3,185.7,149.6,185.6z
	 M148.8,45.7c0.1,0.1,0.4,0.3,0.4,0.4c-0.2,0.4-0.5,0.5-0.7,0.4c-0.1-0.1-0.4-0.3-0.4-0.4C148.3,45.7,148.5,45.6,148.8,45.7z
	 M148.3,153.1c0-0.1,0.1-0.1,0.1-0.1c0.1-0.1,0.3-0.1,0.4,0c0.6,0.2,0.6,1.5,0,1.9c-0.1,0.1-0.3,0-0.4,0
	C147.9,154.4,147.8,153.6,148.3,153.1z M147.3,178.9c0.1-0.1,0.3-0.1,0.5-0.2c0.2,0,0.4,0,0.5,0c0.3,0.1,0.6,0.3,0.8,0.6
	c0.1,0.2-0.8,0.7-1.4,0.5c-0.3-0.1-0.6-0.3-0.9-0.5C147,179.1,147.2,179,147.3,178.9z M146.5,226.3c0.1,0.1,0.4,0.3,0.4,0.4
	c-0.2,0.4-0.5,0.5-0.7,0.4c-0.1-0.1-0.4-0.3-0.4-0.4C146,226.3,146.3,226.1,146.5,226.3z M137.1,154.8c-0.1-0.1-0.4-0.3-0.4-0.4
	c0.2-0.4,0.5-0.5,0.7-0.4c0.1,0.1,0.4,0.3,0.4,0.4C137.6,154.8,137.4,154.9,137.1,154.8z M137.1,10.8c0.3-0.1,0.5,0,0.7,0.4
	c0,0-0.2,0.3-0.4,0.4c-0.2,0.1-0.5,0-0.7-0.4C136.7,11.1,137,10.9,137.1,10.8z M134.1,79.6c0.1,0.1,0.4,0.3,0.4,0.4
	c-0.2,0.4-0.5,0.5-0.7,0.4c-0.1-0.1-0.4-0.3-0.4-0.4C133.6,79.6,133.9,79.5,134.1,79.6z M132.4,184.7c0.1-0.1,0.3-0.4,0.4-0.4
	c0.4,0.2,0.5,0.5,0.4,0.7c-0.1,0.1-0.2,0.3-0.4,0.4C132.4,185.2,132.3,185,132.4,184.7z M124,15.3c0.1,0.1,0.4,0.3,0.4,0.4
	c-0.2,0.4-0.5,0.5-0.7,0.4c-0.1-0.1-0.4-0.3-0.4-0.4C123.4,15.3,123.7,15.2,124,15.3z M111.5,184.5c0.1,0.1,0.3,0.2,0.4,0.4
	c-0.3,0.4-0.5,0.5-0.7,0.4c-0.1-0.1-0.4-0.3-0.4-0.4C111,184.5,111.3,184.4,111.5,184.5z M98,34.5c0.1,0.1,0.3,0.2,0.4,0.4
	c-0.2,0.4-0.5,0.5-0.7,0.4c-0.1-0.1-0.4-0.3-0.4-0.4C97.5,34.4,97.8,34.3,98,34.5z M94.6,118c0.1,0.1,0.3,0.2,0.4,0.4
	c-0.2,0.4-0.5,0.5-0.7,0.4c-0.1-0.1-0.4-0.3-0.4-0.4C94.1,117.9,94.4,117.8,94.6,118z M93.1,148.4c0.2-0.1,0.5,0,0.7,0.4
	c0,0-0.2,0.2-0.4,0.4c-0.2,0.1-0.5,0-0.7-0.4C92.7,148.7,93,148.5,93.1,148.4z M90.1,221.8c0.1,0.1,0.3,0.2,0.4,0.4
	c0,0.3-0.8,0.7-1.4,0.5c-0.3-0.1-0.6-0.3-0.9-0.5c0.1-0.1,0.2-0.3,0.4-0.4C89.1,221.5,89.6,221.5,90.1,221.8z M88.3,44.4
	c0.2,0,0.4,0,0.5,0c0.2,0.1,0.3,0.2,0.4,0.4c0.1,0.2,0,0.5-0.4,0.7c-0.2,0-0.4,0-0.5,0c-0.4,0.2-0.8,0-0.9-0.4c0,0,0,0,0,0
	C87.1,44.8,87.6,44.4,88.3,44.4z M87.5,77.3c0.2-0.1,0.5,0,0.7,0.4c0,0-0.2,0.3-0.4,0.4c-0.2,0.1-0.5,0-0.7-0.4
	C87.1,77.7,87.4,77.5,87.5,77.3z M60.4,58.2c0.2-0.1,0.5,0,0.7,0.4c0,0-0.2,0.2-0.4,0.4c-0.2,0.1-0.5,0-0.7-0.4
	C60,58.5,60.3,58.3,60.4,58.2z M51.6,96.4c0,0,0.3,0.2,0.4,0.4c0.1,0.2,0,0.5-0.4,0.7c0,0-0.2-0.2-0.4-0.4
	C51.1,96.8,51.2,96.6,51.6,96.4z M26.9,167.6c0.1,0.1,0.3,0.2,0.4,0.4c-0.3,0.4-0.5,0.5-0.7,0.4c-0.1-0.1-0.4-0.3-0.4-0.4
	C26.4,167.6,26.7,167.5,26.9,167.6z M6.2,117.8c-0.3,0.1-0.7,0-1,0.2c-1.3,0.6-1.3,0.7-1.9,0.1l-0.8-0.8c0.3-0.2,0.5-0.5,0.8-0.8
	c0.7-1.1,1.8-0.9,2.9-0.9c0.5,0,0.9,0.5,0.9,1.1C7,117.3,6.8,117.6,6.2,117.8z"/>
</svg>
