<svg id="Group_3570" data-name="Group 3570" xmlns="http://www.w3.org/2000/svg" xmlns:xlink="http://www.w3.org/1999/xlink" width="200" height="47.561" viewBox="0 0 200 47.561">
  <defs>
    <clipPath id="clip-path">
      <rect id="Rectangle_158" data-name="Rectangle 158" width="200" height="47.561" fill="none"/>
    </clipPath>
  </defs>
  <g id="Group_182" data-name="Group 182" clip-path="url(#clip-path)">
    <path id="Path_179" data-name="Path 179" d="M2.658,2.651H74.966V42.092s-11.783-3.768-19.721-3.768-20.842,4.97-35.193,4.97S2.737,37.122,2.737,37.122Z" transform="translate(0.777 0.776)" fill="#ff161f"/>
    <path id="Path_180" data-name="Path 180" d="M20.815,47.182C4.958,47.182,1.072,40.05.681,39.236L.375,38.6.286.285H78.854V47.133l-4.077-1.3c-.114-.036-11.421-3.619-18.769-3.619-3.058,0-7.179.868-11.948,1.873-6.544,1.381-14.688,3.1-23.244,3.1" transform="translate(0.015 0.016)" fill="#fff"/>
    <path id="Path_181" data-name="Path 181" d="M20.815,47.182C4.958,47.182,1.072,40.05.681,39.236L.375,38.6.286.285H78.854V47.133l-4.077-1.3c-.114-.036-11.421-3.619-18.769-3.619-3.058,0-7.179.868-11.948,1.873C37.516,45.465,29.371,47.182,20.815,47.182Z" transform="translate(0.015 0.016)" fill="none" stroke="#1d1d1b" stroke-width="0.57"/>
    <path id="Path_182" data-name="Path 182" d="M2.658,2.651H74.966V42.092s-11.783-3.768-19.721-3.768-20.842,4.97-35.193,4.97S2.737,37.122,2.737,37.122Z" transform="translate(0.777 0.776)" fill="#ff161f"/>
    <path id="Path_183" data-name="Path 183" d="M87.336,7.509h.081a.4.4,0,0,0,.12.242c.03.11.009.092.12.122.03.11.009.091.12.12v.081c.108.032.091.011.12.122l.16.04c.013.028.028.054.041.082h.12l.079.12.362.041v.081h.8l.04-.081h.081V8.437h.24V8.4H89.9l.04-.081h.122V8.276a.3.3,0,0,1,.2-.081c.032-.11.011-.092.122-.122V7.993c.108-.03.091-.009.119-.12h.081a1.083,1.083,0,0,1,.161-.283V7.509l.081-.04c.046-.1-.008-.2.04-.283l.079-.041V6.3l-.079-.04V6.178h-.04V5.936h-.081c-.048-.206-.194-.26-.242-.444-.108-.03-.091-.009-.119-.12-.11-.03-.092-.009-.122-.122l-.2-.04V5.13l-.2-.041c-.013-.026-.028-.053-.041-.081h-.24V4.968l-.16-.04V4.887H88.74v.041h-.161l-.04.081h-.2c-.013.028-.026.054-.041.081l-.2.041v.04h-.081v.041l-.12.04v.081l-.12.041v.04c-.04.028-.081.054-.12.081-.077.1.044.078-.12.122-.022.165-.089.172-.12.322h-.081c-.013.108-.028.215-.041.324l-.079.04v.888h.079c.013.107.028.215.041.322m5.656.564c.026.015.054.028.081.041l.04,1.493V18.48h.041v.081h.04v.122h.04v.283l.081.04.04.242.081.041c.013.067.026.135.041.2h.079a1.049,1.049,0,0,0,.683.605v.081a.619.619,0,0,1,.24.04V20.3h.361v.041h.081l.04.081h1.525l.04-.081H96.6V20.3h.361l.081-.12c.04-.015.081-.028.12-.041l.04-.04v-.243h.041l.04-.161h.04V18.4l-.079-.04c-.013-.067-.028-.135-.041-.2a2.954,2.954,0,0,0-.561-.041v-.079H96.4c-.03-.111-.009-.092-.12-.122V11.059l-.081-.041V8.4h-.04V6.058c-.026-.013-.054-.026-.081-.041V5.694h-.04V5.372c-.026-.013-.054-.026-.081-.041l-.04-.081-.321-.04c-.013-.028-.028-.054-.041-.081H93.313l-.04.081a.645.645,0,0,1-.281.04,6.381,6.381,0,0,0,0,1.09Zm9.187,9.076c0-.308-.082-.923.079-1.09.046-.045,0-.017.081-.04.03.041.049.04.081.081h.04v.122c.194.053.046.038.12.161h.041a.28.28,0,0,1,.079.2h.081l.04.2.122.041v.12h.079l.04.2h.081c.038.161.127.2.161.363h.079c.036.149.1.157.122.322.193.053.046.038.12.161h.04a.28.28,0,0,1,.081.2c.193.054.046.04.12.163h.04a.275.275,0,0,1,.081.2h.081c.037.163.127.2.16.363h.081c.034.149.1.157.12.322.081.025.034-.005.081.041h.04v.161c.04.013.081.026.12.041v.12h.081l.04.2c.081.024.034-.007.081.04h.04v.122h.081c.03.11.009.091.12.122v.081a.626.626,0,0,1,.281.04l.04.081h2.567v-.081c.081-.024.036.005.081-.04a.492.492,0,0,0,.361-.122.741.741,0,0,0-.04-.363l-.081-.04c-.071-.1.045-.078-.12-.122-.048-.206-.194-.26-.24-.444-.081-.024-.034.007-.081-.04h-.04v-.122h-.081c-.037-.159-.123-.176-.16-.322h-.081a1.382,1.382,0,0,1-.16-.322h-.081v-.122c-.164-.049-.053-.025-.12-.12-.026-.015-.054-.028-.081-.041v-.081h-.04c-.013-.041-.028-.081-.041-.122h-.081v-.12h-.079a1.447,1.447,0,0,1-.161-.324h-.079c-.013-.053-.028-.107-.041-.161h-.081c-.037-.144-.124-.177-.16-.322h-.081a.343.343,0,0,0-.079-.161h-.041v-.081h-.04v-.081h-.04c-.015-.041-.028-.081-.041-.122-.137-.041-.132-.135-.24-.2V16.06c-.11-.03-.091-.009-.12-.12h-.081a.326.326,0,0,0-.081-.161h-.04l-.04-.161-.2-.162v-.081c-.04-.026-.081-.053-.12-.081v-.12h-.041a.331.331,0,0,1-.079-.161c-.081-.025-.034.005-.081-.041h-.04V14.85h-.081c-.037-.159-.123-.176-.161-.322h.041v-.081c.081-.067.16-.135.24-.2v-.081h.081c.053-.193.19-.172.24-.363a.3.3,0,0,0,.24-.242h.081c.03-.111.009-.092.12-.122.03-.11.009-.091.12-.122.03-.11.009-.091.12-.12v-.122l.12-.081v-.081h.041c.075-.092.165-.151.2-.283h.081c.038-.144.126-.177.16-.322h.081v-.081h.041a.854.854,0,0,1,.12-.161v-.041h.079c.049-.206.194-.26.242-.444h.079c.015-.066.028-.133.041-.2.079-.024.034.005.079-.041h.041v-.12h.081a.725.725,0,0,1,.12-.283c.04-.026.079-.054.12-.081V10.7l.12-.041c.013-.164.013-.144.081-.242h.04v-.161h.04a.333.333,0,0,0,.081-.242.364.364,0,0,1-.16-.081V9.889h-.362v-.04h-.12V9.808h-1.885l-.04.081h-.362V9.93c-.04.026-.079.054-.12.081l-.04.122h-.081l-.04.2h-.081v.122l-.12.04c-.029.21-.1.115-.12.324h-.081l-.04.12c-.026.013-.054.026-.081.041v.081h-.04v.081c-.041.026-.081.053-.12.081V11.3h-.081c-.038.144-.126.177-.161.322h-.079c-.037.139-.086.1-.12.242h-.081l-.04.122-.161.12v.081c-.026.015-.053.028-.081.041v.081l-.079.041a1.354,1.354,0,0,0-.281.362h-.081v.081c-.12.033-.137.075-.16.2h-.081a.362.362,0,0,1-.2.242v.041a.286.286,0,0,0-.16-.041c-.034-.045.005-.005-.04-.04V5.855c0-.164.04-.47-.041-.564-.082-.074-.256-.029-.361-.081l-.04-.081H99.571l-.04.081-.4.04V20.175l.2.04.04.081h2.567v-.081l.242-.04Zm18.533,2.945v-.041h.2l.04-.081.2-.041.04-.081h.12v-.04a1.124,1.124,0,0,1,.321-.122V19.61l.2-.04V19.49c.209-.03.114-.1.321-.122.024-.081-.005-.034.04-.081v-.041h.122v-.081h.119v.081h.122l.04.122a.327.327,0,0,1,.16.081v.041l.12.04c.015.026.028.054.041.081h.12c.03.11.009.092.12.122v.081a.824.824,0,0,1,.481.363.289.289,0,0,1,.2.081v.04h.081c.026.041.054.081.081.122h.12v.04l.12.041v.04c.106.034.123-.1.16-.12h.122v-.081c.079-.025.033.005.079-.041.11-.03.091-.009.12-.12h.081l.04-.122c.028-.013.054-.026.081-.041v-.081h.041l.079-.12h.04v-.081h.081a.326.326,0,0,1,.081-.161h.04c.013-.041.028-.081.041-.122l.079-.041v-.081l.122-.081.04-.12h.081a.314.314,0,0,1,.079-.2h.041V18.8l.079-.04v-.081h.041v-.4c-.11-.032-.091-.011-.12-.122-.145-.041-.161-.127-.321-.161v-.081c-.3-.085-.4-.415-.723-.484v-.082c-.108-.03-.091-.009-.12-.12-.108-.03-.091-.009-.12-.122-.129-.016-.118-.037-.2-.081a.368.368,0,0,1,.041-.2h.04l.04-.2c.028-.013.054-.026.081-.041.013-.081.026-.161.041-.242h.079a.53.53,0,0,1,.041-.283l.079-.04v-.242l.081-.041v-.081h.04v-.242h.041v-.081l.081-.041v-.322H125v-.081h.04l.04-.4h.041v-.081h.04c.013-.189.028-.377.041-.565l.079-.04v-.686h.041v-.283l.079-.041v-.605h-.079v-.081a.363.363,0,0,1-.161-.081v-.04H123v.04a.321.321,0,0,1-.2.081v.081h-.081l-.04,1.21-.081.041v.605h-.04v.081c-.028.013-.054.026-.081.041v.443l-.12.081c-.079.172.09.239-.081.363v.041a.332.332,0,0,1-.12-.081c-.11-.032-.091-.011-.12-.122-.174-.048-.137-.127-.24-.2h-.081c-.04-.053-.081-.107-.12-.161l-.361-.322a1.61,1.61,0,0,0-.441-.4v-.081c-.11-.032-.092-.011-.122-.122-.108-.03-.091-.009-.12-.12-.112-.03-.115-.073-.2-.122v-.081c-.11-.03-.092-.009-.122-.122-.128-.034-.141-.1-.24-.161v-.081c-.108-.03-.091-.009-.12-.122h-.081l-.079-.161-.281-.242c-.059-.061-.1-.147-.16-.2v-.081c-.11-.03-.092-.009-.12-.12h-.081c-.03-.11-.009-.092-.12-.122a.35.35,0,0,0-.081-.161h-.04v-.122h-.041a.319.319,0,0,1-.079-.161h-.081c-.057-.034,0-.1-.04-.161-.041-.026-.081-.053-.12-.081v-.12h-.041a.317.317,0,0,1-.081-.242h-.079a1.614,1.614,0,0,0-.161-.444l-.04-.324h-.041V9.284h.041V9.2h.04c.013-.094.026-.188.041-.281h.079c.026-.234.151-.283.281-.4l.04-.081h.12c.028-.04.054-.081.081-.12h.12c.013-.028.026-.054.041-.082h.079V8.2h.441c.013-.026.026-.054.041-.081.177-.074.35.062.441.081h.521v.04l.161.041v.041h.24v.04h.081l.04.081h.2c.026.041.053.081.081.122h.16l.04.081h.081v.04l.2-.04V8.558h.12a.314.314,0,0,1,.081-.2h.04V8.235l.081-.04V8.074h.04v-.12l.081-.041.04-.281h.081a1.5,1.5,0,0,1,.041-.324h.079c.007-.248.089-.559-.04-.686-.063-.1-.044-.024-.12-.081-.028-.04-.054-.081-.081-.12h-.161l-.079-.122h-.161l-.079-.122h-.2v-.04h-.081l-.04-.081h-.24c-.015-.026-.028-.054-.041-.081h-.081V5.936h-.361l-.04-.081-.762-.04c-.013-.028-.026-.054-.041-.081h-1.042v.04h-.081v.041h-.441v.04h-.28l-.041.081h-.321v.041H117.5c-.013.026-.026.054-.041.081h-.2V6.1a.568.568,0,0,1-.321.081c-.013.041-.028.082-.041.122h-.2c-.024.081.007.034-.04.081v.041h-.12v.04a.444.444,0,0,1-.2.081v.081a1.076,1.076,0,0,0-.481.4h-.081v.081l-.081.04-.04.122c-.04.026-.081.053-.12.081l-.04.122h-.081c-.026.2-.126.263-.2.4l-.04.161-.081.04v.161h-.04v.122l-.081.041c-.013.148-.028.3-.041.443h-.079v1.614h.04v.081h.04v.12h.041v.283h.04v.081h.041v.122h.04V11.3l.081.04.04.242c.026.015.053.028.081.041v.161h.04a.339.339,0,0,1,.081.242c.04.015.081.028.12.041,0,.177.011.221.12.283l-.04.081-.2.04v.081c-.159.037-.214.127-.361.161v.081c-.225.033-.247.192-.441.243-.032.11-.011.091-.122.12-.03.11-.009.092-.12.122-.03.11-.009.091-.12.12-.045.176-.131.14-.2.243v.081h-.04V13.8l-.081.04-.04.122h-.081c-.025.2-.124.251-.16.444h-.081c-.007.182-.009.176-.081.281h-.04c-.048.1.007.2-.04.283l-.081.041v.362c-.026.015-.054.028-.081.041l-.04,1.33h.04v.363h.04v.081h.041v.324h.04v.081l.081.04v.2l.081.04c.046.082-.008.184.04.283h.04a.314.314,0,0,1,.081.2h.081l.04.2h.081a1.394,1.394,0,0,1,.16.324h.081c.03.11.009.091.12.12.03.11.009.092.12.122.03.11.011.091.12.12.033.123.075.139.2.161v.082h.12c.044.164.017.049.12.12v.041l.122.04v.041h.12v.081l.2.04v.081l.242.041v.081c.184.008.173.011.28.081v.041h.281l.04.12h.361v.041h.081l.04.081h.6c.026.04.053.081.081.12h1.564l.04-.081h.161v-.04h.6l.04-.081h.081V20.3h.361l.041-.081h.081v-.04h.24l.04-.081Zm-.321-2.662h-.04c-.033.122-.075.139-.2.161v.081l-.24.04v.081l-.281.041-.04.081h-.362v.04h-.079V18l-.482.041h-.441l-.04-.082H118.1v-.04h-.321v-.041a.746.746,0,0,0-.321-.081v-.081c-.159-.036-.213-.126-.361-.161v-.081h-.081v-.04c-.083-.073-.025-.082-.16-.122-.063-.236-.236-.264-.24-.565h-.081l-.04-.4-.081-.04V16.06h-.041c.015-.188.028-.377.041-.564h.081v-.4h.04a.586.586,0,0,0,.081-.324l.12-.04a.617.617,0,0,1,.04-.242h.081v-.122c.122-.033.137-.075.16-.2.155.02.112.049.242.081v.12c.108.032.091.009.12.122.108.03.091.009.12.12.108.032.091.011.12.122.108.03.091.009.12.12.11.032.091.011.12.122h.081c.03.11.009.092.12.122.03.11.009.091.12.12v.081c.108.032.091.011.12.122.11.03.091.009.12.122.11.03.091.009.12.12.11.03.091.009.12.122.234.063.361.365.561.484v.081h.12c.032.11.011.092.122.122.03.11.009.091.12.12v.081h.04a.85.85,0,0,0,.16.122v.041h.081v.081h.041l.04.081h.081c.053.067.107.133.16.2h.081v.081l.12.041ZM78.871,18l.4-.041v-.081c.079-.024.034.007.079-.04h.041l.04-.242c.026-.015.054-.028.081-.041v-.2l.12-.081v-.2h.04v-.081h.041l.04-.243.081-.04.04-.242h.081a.647.647,0,0,1,.04-.283c.026-.013.054-.026.081-.041v-.2l.12-.081v-.2h.04a.581.581,0,0,0,.081-.322c.04-.013.081-.026.12-.041a.726.726,0,0,1,.041-.322l.079-.041v-.161l.081-.04.04-.283.081-.04.04-.242.081-.041v-.161h.041v-.081L81,13.842v-.2c.04-.028.081-.054.12-.081v-.243s.026.008.041-.081h.079a.643.643,0,0,1,.041-.281l.079-.041v-.2l.122-.081V12.39h.04v-.081l.081-.04v-.2h.04v-.081h.041l.04-.242L81.8,11.7c.015-.107.028-.215.041-.322h.081l.04-.363h.081l.04-.322h.12l.04.444H82.2v.242l-.081.04v.766h-.04v.243L82,12.47v.565l-.04,1.089-.081.041v2.621c.028.013.054.026.081.041L82,20.175c.165.011.143.015.24.081v.04h2.608v-.081l.2-.04c.034-.151.1-.159.12-.324h-.081q-.02-.908-.04-1.814v-1.09l-.081-.04c-.056-.135.005-.608-.04-.768v-2.1L84.848,14V13.2a6.678,6.678,0,0,1-.04-1.493V11.14l-.081-.041V9.688a4.811,4.811,0,0,1-.04-1.049v-.4l-.081-.04V6.219h-.04a.363.363,0,0,1-.081-.161.775.775,0,0,1-.361-.081V5.936H81.879l-.04.081h-.081v.041h-.28V6.1a.35.35,0,0,1-.161.081,4.413,4.413,0,0,1-.16.565h-.081a.628.628,0,0,1-.041.283l-.079.04v.2c-.04.026-.081.053-.12.081v.2H80.8l-.04.161h-.04v.161l-.081.04v.122H80.6v.12l-.081.041-.04.283H80.4a.622.622,0,0,1-.041.281l-.079.041V9c-.041.026-.081.053-.12.081v.2h-.041v.081c-.026.015-.053.028-.081.041v.2l-.12.081v.2l-.079.041a.5.5,0,0,0-.041.283h-.079a6.5,6.5,0,0,0-.281.927h-.081l-.04.242-.081.04c-.048.1.008.2-.04.283l-.081.041v.161h-.04v.081l-.081.04v.2h-.04v.081c-.028.013-.054.026-.081.041-.048.1.008.2-.04.281l-.081.041v.2l-.081.04v.081h-.04v.2l-.081.04-.04.283c-.028.013-.054.026-.081.041-.013.094-.026.188-.041.281H78.31a1.716,1.716,0,0,1-.04.324h-.081v.12c-.041.013-.081.026-.12.041a.4.4,0,0,0-.081-.081v-.2L77.908,14v-.12h-.04v-.2l-.081-.04-.04-.283c-.028-.013-.054-.026-.081-.041v-.2h-.04v-.081l-.081-.041v-.2l-.081-.04v-.081h-.04v-.2l-.081-.04-.04-.243-.081-.04v-.081h-.04v-.2l-.081-.04-.04-.243-.081-.04a.607.607,0,0,1-.041-.283h-.079a.729.729,0,0,0-.081-.322h-.04c-.015-.067-.028-.135-.041-.2h-.04v-.082h-.04v-.161l-.081-.04v-.081H76.5v-.161l-.079-.041a.607.607,0,0,1-.041-.283H76.3a1.156,1.156,0,0,1-.041-.281h-.081c-.016-.085-.038-.079-.04-.081v-.2l-.081-.041-.04-.242h-.081c-.053-.188-.107-.377-.16-.564H75.7a.648.648,0,0,0-.04-.283c-.026-.013-.054-.026-.081-.041v-.2h-.04a.35.35,0,0,1-.081-.283h-.081c-.026-.107-.053-.215-.081-.322l-.079-.041v-.2c-.026-.015-.054-.028-.081-.041V6.985H75.1V6.824l-.081-.041V6.7h-.04V6.541L74.9,6.5l-.04-.2-.081-.04V6.178c-.017-.024-.054-.029-.081-.081l-.361-.081c-.013-.026-.028-.053-.041-.081H71.892v.041l-.161.04v.041h-.12V6.1c-.04.028-.081.054-.12.081q-.02.969-.04,1.937H71.37v2.017h-.041v.645l-.079.041v.443q-.02,1.11-.041,2.22l-.079.04v2.057h-.041v.646l-.079.04v2.379h-.041v.283l-.081.041v1.169c.021.037.182.073.242.161h2.607v-.04a.313.313,0,0,1,.2-.081q.02-1.09.041-2.179h.079v-2.46q.02-.486.041-.968h-.041V12.431l-.079-.041v-.322q-.022-.464-.041-.927H73.9v-.081h-.041c0-.126-.019-.3.041-.363v-.041h.04V10.7a1.117,1.117,0,0,1,.2.242v.242h.04c.015.054.028.108.041.161h.04v.242c.026.015.053.028.081.041V11.7h.04v.242c.026.015.054.028.081.041v.081h.04v.2l.081.04.04.322.081.041v.161h.04l.041.161h.04v.2c.041.026.081.054.12.081v.242c.026.013.054.026.081.041a.5.5,0,0,1,.04.281h.081c.017.085.04.078.04.081v.2c.041.026.081.054.12.081v.2l.081.04v.081h.041v.2l.079.04c.013.081.028.161.041.243h.04c.013.053.026.107.041.161h.04v.12l.079.041V15.5h.041v.081l.081.041v.161l.079.04V15.9h.041v.2h.04a.349.349,0,0,1,.081.283h.079c.017.085.04.078.041.081v.2c.04.028.081.054.12.081v.2c.026.013.054.026.081.041v.081h.04v.161l.081.04v.081h.04c.028.122.054.243.081.363.04.028.081.054.12.081l.04.122a6.105,6.105,0,0,0,2.046.161Zm8.705,2.179.2.04.04.081h2.568v-.081l.2-.04c.025-.081-.005-.036.041-.081V10.9a2.51,2.51,0,0,0-.081-.968h-.081V9.889H90.1l-.04-.081H88.1c-.013.028-.028.054-.041.081-.126.053-.275-.036-.361.041l-.12.04-.04.646h.04l-.04.2h.04v.04c.012.107-.04.122-.04.122v.362h.04a.114.114,0,0,1-.04.122v.12h.04c-.013.069-.026.135-.04.2h.04v.041h-.04v1.33h.04v.161h-.04c-.041.156.052.408.04.485h-.04v.161h.04c.012.082-.04.081-.04.081v.322h.04v.041h-.04v1.21h.04l-.04.523h.04V16.3h-.04v1.21h.04c.012.081-.04.081-.04.081v.645h.04l-.04.646a.8.8,0,0,1,.04.362.107.107,0,0,0-.04.122h.04l-.04.04c-.012.1.033.1.04.162.011.1-.033.1-.04.161l.04.444m48.861,6.291H136.4v-.281h-.04a.31.31,0,0,1-.081-.243H136.2a.664.664,0,0,0-.361-.443c-.054-.194-.038-.046-.16-.122-.013-.026-.026-.054-.041-.081l-.24-.081v-.081h-.24V25.1h-.081l-.04-.081h-.843l-.04.081c-.09.052-.211-.011-.321.041v.04a.338.338,0,0,1-.24.081c-.05.164-.024.05-.12.122-.013.026-.026.054-.041.081h-.079c-.028.041-.054.081-.081.122h-.04v.081l-.122.081v.081c-.079.024-.034-.005-.079.04h-.041v.122l-.079.04v.122h-.041v.122l-.081.04v1.049c.028.013.054.026.081.041v.12h.041v.122h.04a.381.381,0,0,1,.04.2l.12.041c.038.139.086.1.122.242h.079V28.2a.332.332,0,0,1,.161.081v.041l.12.04.04.081h.161l.04.081h.081v.041h.2l.04.081h.883V28.6h.081v-.04h.24v-.041a.317.317,0,0,1,.24-.081l.04-.12h.161c.034-.129.1-.143.16-.242h.081c.03-.111.009-.092.12-.122l.04-.2h.081c.013-.081.026-.161.041-.242h.079v-.283h.041v-.12l.079-.041v-.484l-.079-.041Zm-5.336,11.7c-.214,0-.394-.025-.561-.04-.03-.11-.009-.092-.12-.122a9.654,9.654,0,0,1-.04-1.493V25.459H130.3v-.081l-.361-.041v-.081h-2.208l-.04.081-.361.041v.081c-.081.024-.034-.005-.081.041h-.04v4.436c0,.128.02.295-.04.363v.04h-.122v-.081a2.159,2.159,0,0,1-.361-.161v-.081a1.374,1.374,0,0,1-.28-.041v-.081h-.281l-.04-.081h-.081v-.04h-1.8c-.015.026-.028.054-.041.081h-.12v.04h-.28l-.041.081h-.081v.041h-.2c-.028.041-.054.081-.081.122H123.2l-.079.12h-.161c-.026.041-.053.081-.081.122a.754.754,0,0,1-.28.12v.081c-.137.038-.1.086-.24.122-.03.11-.009.092-.12.122-.032.11-.011.091-.12.12v.081h-.081v.041a.868.868,0,0,0-.12.161h-.041v.081H121.8c-.013.054-.028.107-.041.161h-.079v.122l-.12.04c-.015.067-.028.135-.041.2l-.081.04v.122c-.04.026-.079.054-.12.081v.161h-.04v.081l-.081.041v.161c-.04.026-.079.054-.12.081v.283h-.081l-.04.4-.081.04-.04.485-.081.04v.686h-.04v.686c-.026.015-.054.028-.081.041-.054.151.071.178.081.2v.645h.04v.646l.081.04.04.524c.028.013.054.026.081.041v.2h.04v.122h.041v.081h.04v.2l.081.04.04.242h.041v.081l.079.041v.161c.041.026.081.054.12.081v.081l.081.04.041.163h.04a.326.326,0,0,1,.081.161h.079l.041.2c.108.032.091.011.12.122h.079c.032.11.011.092.122.122.03.11.009.091.12.12V39.7c.108.032.091.011.12.122a.291.291,0,0,1,.2.081v.04c.04.015.079.028.12.041l.04.081.2.041v.081a.338.338,0,0,1,.24.081v.04l.24.041c.013.026.026.054.041.081h.24l.04.081.561.04c.013.028.026.054.041.082h1.324l.04-.082h.361V40.5h.12c.015-.026.028-.054.041-.081h.24c.026-.041.053-.081.081-.122h.16l.081-.12h.12V40.14a.358.358,0,0,1,.16-.081v-.081c.137-.037.1-.086.242-.122v-.081c.108-.03.091-.009.12-.12.112-.03.115-.073.2-.122a.577.577,0,0,0,.2.242v.081h.081c.03.111.009.092.12.122v.081c.11.03.091.009.12.122l.2.04c.013.026.026.054.041.081h.16c.026.041.053.081.081.122h.32v.04h.081V40.5h.24v.04h.522V40.5h.321v-.041h.081v-.04h.441l.04-.081.321-.041v-.081c.11-.03.091-.009.12-.12h.081V38.245H131.1ZM127.21,37.4c-.026.013-.054.026-.081.041l-.04.2h-.041a.356.356,0,0,0-.079.161.351.351,0,0,0-.161.082v.04h-.12c-.026.041-.053.081-.081.122h-.24l-.04.081h-.161v.04a2.749,2.749,0,0,1-.883-.04l-.04-.081H125V38a.307.307,0,0,0-.24-.081c-.013-.04-.028-.081-.041-.122-.108-.03-.091-.009-.12-.12-.108-.03-.091-.009-.12-.122H124.4c-.041-.149-.127-.18-.16-.363h-.081l-.04-.281-.081-.041v-.322H124v-.122h-.041v-.12h-.04v-2.1l.081-.04.04-.485h.04v-.081h.041l.04-.242c.026-.013.054-.026.081-.041l.04-.242h.081l.04-.2h.081c.055-.214.3-.347.482-.444V32.4h.119c.015-.026.028-.053.041-.081h.081v-.04h1.123c.026.04.053.081.081.12h.2c.028.041.054.081.081.122h.12l.081.12h.081v.041l.24.2ZM76.945,26.064H70.767v.122h-.079v1.935h.079V28.2h1.365v.041h.04v9.035a3.731,3.731,0,0,1-.04,1.008H70.767c-.025.1-.011.075-.079.12v1.9a.858.858,0,0,1,.12.122h6.137V40.14h.041V38.527h-.041v-.242a5.6,5.6,0,0,1-1.4-.041c-.022-.055-.015-.09-.041-.161h-.04V28.928c0-.231-.034-.528.081-.646l.04-.081h1.363v-.242h.041V26.346h-.041Zm90.9,13.472v-.242c-.026-.013-.054-.026-.081-.041v-.12h-.04V38.85l-.081-.04v-.122h-.04v-.2l-.081-.041v-.161h-.04V38.2h-.041c-.036-.055-.029-.071-.04-.161h-.12V38l-.441.041v.081h-.12v.04h-.482l-.04.081h-.321V38.2H165.8v-.041h-.2v-.04h-.081v-.041c-.055-.036-.07-.028-.161-.04l-.04-.122c-.081-.024-.034.005-.081-.04h-.04v-.2l-.12-.081V33.606a9.679,9.679,0,0,1,.04-1.533c.754,0,1.6.022,2.287-.041v-.484l.081-.04v-.242c0-.243.067-.744-.081-.848v-.4a.861.861,0,0,1-.12-.122H165.8a2.607,2.607,0,0,1-.721-.04V27.233c-.11-.03-.091-.009-.12-.12l-.683-.041-.04-.081h-1.525l-.04.081-.642.041c-.03.11-.009.091-.12.12v1.776a3.251,3.251,0,0,1-.04.886h-1.324a.786.786,0,0,1-.122.122,6.527,6.527,0,0,0,.041,2.016,8.528,8.528,0,0,0,1.4.041,9.651,9.651,0,0,1,.04,1.493v4.195l.081.04v.243h.04v.444l.081.04v.122h.04v.242l.081.04v.081h.04v.122l.081.04v.122h.04v.081l.081.041V39.5l.081.04.04.122h.04a.316.316,0,0,1,.081.161c.11.03.091.009.12.12a.762.762,0,0,1,.281.122c.026.041.053.081.081.122h.12l.079.12h.2c.028.041.054.081.081.122h.24c.013.026.026.054.041.081h.079v.04h.482l.04.082h1.484c.015-.028.028-.054.041-.082h.522V40.5h.12v-.041h.079v-.04h.321c.026-.041.054-.081.081-.122h.24l.081-.12h.16V40.14a.363.363,0,0,1,.161-.081l.04-.444s-.033-.005-.04-.081M88.218,33.162h-.041v-.605l-.079-.04v-.081h-.041v-.363h-.079a1.422,1.422,0,0,1-.041-.322h-.081a1.114,1.114,0,0,0-.119-.322H87.7v-.122l-.081-.04v-.082l-.2-.161v-.081h-.041c-.07-.11.038-.074-.12-.12-.03-.111-.009-.092-.12-.122-.03-.11-.009-.091-.12-.122V30.5c-.144-.038-.177-.126-.321-.161v-.081l-.2-.04-.04-.081h-.161l-.079-.122h-.2c-.026-.041-.054-.081-.081-.122h-.361l-.081-.12H83.644l-.04.081a.8.8,0,0,1-.361.04v.081c-.251.029-.313.152-.561.163-.025.079.005.034-.041.081v.04h-.16c-.028.041-.054.081-.081.122a.719.719,0,0,1-.281.12v.081c-.137.038-.1.086-.24.122-.024.081.005.034-.04.081s0,.017-.081.041a.3.3,0,0,0-.12-.081v-.081H81.6v-.444h-.041v-.081h-.04l-.04-.122-.362-.041-.04-.081H79.352l-.04.081-.441.041V30.1c-.04.013-.081.026-.12.041v.281c0,.272-.046.659.12.766v9h.04c.078.108.209.133.281.242H81.68v-.041h.079v-.04l.2-.041v-.081h.081v-6.7h.04v-.161c.026-.013.054-.026.081-.041.013-.03.034-.328.04-.362h.081a.509.509,0,0,1,.04-.2H82.4v-.081c.04-.013.081-.026.12-.041l.081-.12h.12l.04-.081h.081V32.4H83.2l.041-.081h.321v-.04l.481.04.04.081h.281v.041h.079c.015.026.028.054.041.081h.12v.04a.35.35,0,0,0,.161.081.33.33,0,0,0,.079.162h.041l.04.161.081.04v.283h.04v.081h.04v.161h.041V40.3a.746.746,0,0,1,.321.081v.041h2.486l.041-.081.2-.041c.032-.11.011-.091.12-.12V33.445l-.079-.04Zm11.553.524a4.034,4.034,0,0,0-.041-.886V30.7l-.079-.04v-.2H99.61c-.066-.226.062-.248-.12-.4v-.041h-.16c-.026-.041-.054-.081-.081-.122h-1.6v.041h-.081l-.041.081H97.4v.041c-.04.026-.081.053-.12.081a1.081,1.081,0,0,1-.12.605l-.2-.041v-.081c-.144-.038-.176-.126-.321-.161V30.38a.339.339,0,0,1-.16-.081v-.041H96.4v-.04h-.081v-.041c-.054-.036-.07-.03-.16-.04v-.081c-.085-.017-.078-.04-.081-.041h-.2l-.079-.122h-.281c-.026-.04-.053-.081-.081-.12H93.594v.04l-.161.041v.04h-.321l-.04.122c-.118,0-.215-.009-.281.041l-.04.081h-.16c-.028.04-.054.081-.081.12h-.12l-.041.081-.16.041c-.013.026-.026.054-.041.081h-.079v.04a.5.5,0,0,1-.24.122V30.7c-.11.03-.091.009-.122.122-.108.03-.091.009-.12.12-.108.032-.091.011-.12.122h-.079c-.03.11-.011.091-.122.12-.053.108-.106.215-.16.324h-.081a.3.3,0,0,1-.081.2h-.04v.122h-.04v.04h-.081v.2h-.04v.041h-.081v.2h-.081a.911.911,0,0,1-.081.322h-.04l-.04.283-.081.041v.281H90.3v.122c-.028.013-.054.026-.081.041v.4h-.04v.122l-.081.04v.524a4.675,4.675,0,0,0,0,1.169v.847h.04v.081h.041v.122h.04v.4c.026.015.053.028.081.041v.122h.04v.242l.081.04v.122h.04v.161c.026.013.054.026.081.041v.161h.04v.081l.081.04v.161c.04.028.081.054.12.081v.122h.041a.306.306,0,0,1,.079.2h.081l.04.163h.081v.081c.054.04.107.081.16.12v.081l.321.283V39.5h.081v.081h.081v.04a.863.863,0,0,1,.16.122h.041v.081c.287.036.383.23.682.283v.081a.617.617,0,0,1,.28.04l.041.081h.321l.04.081h.12v.041h1.885v-.041h.12c.015-.026.028-.053.041-.081H95.8l.04-.12h.2V40.1l.24-.041c.054-.194.04-.046.161-.122l.04-.081a.405.405,0,0,1,.28-.081c.013.122.028.243.041.363h-.041v.322l-.079.041v.686c-.028.013-.054.026-.081.041v.081h-.04v.242l-.081.04-.04.243H96.4a.339.339,0,0,0-.081.16h-.079a.837.837,0,0,1-.081.2L96,42.238v.081l-.12.04-.04.081-.24.041-.041.081-.4.04c-.013.028-.026.054-.041.082h-.842l-.04-.082-.563-.04-.04-.081h-.281v-.041h-.12l-.04-.081h-.24v-.04h-.081l-.04-.081h-.161V42.2h-.079c-.015-.026-.028-.053-.041-.081-.152-.074-.166.052-.28-.122H92.19l-.2.243h-.04c-.015.053-.028.107-.041.161l-.079.04V42.6h-.041a.344.344,0,0,0-.081.283c-.079.025-.034-.005-.079.041h-.041v.2l-.079.041v.122h-.041v.12l-.079.041c-.013.094-.028.188-.041.281h-.081v.444l.081.041v.04h.081c.026.041.053.081.081.122h.12l.04.081.2.041.04.081h.161v.04h.079c.015.026.028.054.041.081h.24s.011.03.081.041v.081l.441.04v.081h.481v.041h.081l.04.081h.723V45.1l1.925-.041v-.081l.522-.041.04-.081h.081v-.04h.24c.013-.028.028-.054.041-.081H97.2V44.7h.2c.028-.04.054-.081.081-.12h.12c.013-.028.026-.054.041-.081h.119v-.041a.328.328,0,0,1,.242-.081c.03-.11.009-.092.12-.122.024-.081-.005-.034.04-.081v-.04h.12c.03-.11.009-.092.12-.122.037-.143.156-.223.242-.322h.04l.04-.122h.081v-.12c.192-.059.044-.036.12-.161l.12-.082v-.12c.041-.026.081-.054.12-.081v-.161l.081-.041v-.081h.04v-.161c.028-.013.054-.026.081-.041l.04-.281.081-.041v-.242h.041v-.161h.04v-.081h.04v-.4h.041v-.163l.079-.04V40.02a6.8,6.8,0,0,0,.041-1.533Zm-3.089,3.228-.081.04-.04.485h-.081l-.04.12-.2.161c-.013.028-.026.054-.041.081h-.12l-.04.082H95.96v.04h-.321L95.6,38h-.081v.041A2.2,2.2,0,0,1,94.8,38c-.015-.026-.028-.054-.041-.081l-.4-.04V37.8H94.2V37.72a1.136,1.136,0,0,1-.24-.12v-.081h-.081l-.04-.161c-.164-.049-.054-.028-.12-.122-.028-.013-.054-.026-.081-.041v-.081h-.04v-.12c-.028-.013-.054-.026-.081-.041v-.12h-.04v-.161l-.081-.041v-.322h-.041v-.122h-.04v-.081h-.04V34.333h.04v-.081h.04v-.2h.041v-.283l.081-.04v-.2h.04v-.12c.026-.015.053-.028.081-.041l.04-.242h.081c.026-.188.122-.188.16-.363h.081v-.081c.04-.013.081-.026.12-.041l.04-.081c.048-.041.074-.025.122-.081h.079V32.4c.184-.007.174-.011.281-.081v-.04H95.72v.04H95.8l.04.081H96v.041a1.257,1.257,0,0,1,.362.242c.04.054.081.108.12.161l.081.041.04.12h.081v3.752h-.041v.04c.013.018.075.034.041.122M108.6,30.46h-.04v-.283h-.041v-.2s-.025,0-.04-.081a.32.32,0,0,1-.2-.081v-.04h-1.284l-.04.12h-.2v.041a.344.344,0,0,1-.24.081c-.054.194-.038.046-.16.122v.04a.306.306,0,0,1-.161.081c-.03.11-.009.092-.12.122-.03.11-.009.091-.12.12-.03.11-.011.092-.12.122l-.041.161h-.079V30.9l-.12.04a.337.337,0,0,1-.081.242h-.041v.122l-.079.041v.081h-.041v.081h-.04l-.04.2a1.91,1.91,0,0,1-.2.242v.041h-.041v-.041l-.079-.04v-.888l-.081-.04v-.161h-.04v-.605l-.081-.041-.04-.161a.7.7,0,0,1-.321-.041c-.013-.026-.028-.053-.041-.081H102.66l-.04.081-.482.041c-.04.452,0,.893,0,1.412v1.008h.041v.081h.04v1.21h.04V40.3a.313.313,0,0,1,.242.081v.041h2.447v-.041a.89.89,0,0,1,.321-.081v-.04h.04V36.39h.081l.04-1.171h.04v-.081h.041l.04-.523c.026-.015.054-.028.081-.041v-.283h.04v-.081l.081-.04V34.01h.04V33.93l.081-.041v-.122c.04-.026.081-.053.12-.081v-.12c.024-.052.018.012.041-.041h.079a.278.278,0,0,1,.081-.2h.04c.074-.1-.044-.078.122-.12.03-.11.009-.092.119-.122.032-.11.011-.091.122-.12v-.081a.463.463,0,0,0,.2-.081l.041-.081h.12l.04-.082h.081V32.6h.12l.04-.081.281-.041.04-.081h.4l.04-.081.482-.04c.016-.089.059-.251.081-.324V31.59h.04v-.081h.04v-.968h-.04Zm10.59,3.792h-.04v-.565l-.081-.04c-.013-.161-.026-.324-.041-.485l-.079-.04V32.84h-.04v-.081l-.081-.04v-.243h-.081l-.04-.242-.081-.04v-.081h-.04v-.122h-.041a.327.327,0,0,1-.079-.242c-.193-.059-.045-.036-.122-.161-.04-.028-.079-.054-.12-.081v-.081c-.04-.028-.079-.054-.12-.081v-.081h-.081a1.789,1.789,0,0,0-.721-.687V30.5a.8.8,0,0,1-.281-.12l-.04-.081-.2-.041c-.026-.04-.053-.081-.081-.12h-.2c-.028-.041-.054-.081-.081-.122h-.24c-.028-.041-.054-.081-.081-.122h-.361v-.04l-.161-.041v-.04h-2.126v.04c-.053.015-.107.028-.161.041v.04h-.321v.041h-.079l-.04.081h-.242v.041a.584.584,0,0,1-.321.081l-.04.12h-.2l-.04.122h-.161v.081c-.161.038-.2.127-.361.161V30.7a1.9,1.9,0,0,0-.723.686h-.079v.122H110.6v.04c-.083.073-.025.082-.16.122-.022.165-.089.172-.122.322h-.079c-.013.081-.026.161-.041.242h-.079c-.013.165-.015.144-.081.242H110v.161h-.041v.082l-.081.04v.2c0,.005-.024-.008-.04.081h-.081v.322c-.04.026-.079.054-.12.081v.444c-.04.026-.079.054-.12.081v2.582l.081.04v.082h.04v.4h.081c.007.033.028.336.04.363l.081.04a.591.591,0,0,1,.04.283h.081c.041.2.143.284.161.484h.079c.015.067.028.135.041.2h.079c.036.149.1.157.122.322h.079v.041c.085.071.025.081.161.12.037.139.085.1.12.242h.081v.081c.137.038.1.087.24.122.03.11.009.092.12.122v.081h.081l.079.12h.081v.041h.081l.04.081.12.04v.081a.631.631,0,0,1,.24.041v.081h.2c.024.081-.005.034.041.081v.041h.2v.04h.079l.04.081h.2v.041l.161.04v.041h.28l.041.081.642.04v.041h.079v.041h1.686v-.041h.12v-.041l.721-.04.041-.081h.361v-.041h.12l.04-.081h.281c.026-.04.053-.081.081-.12h.28c.026-.041.054-.081.081-.122h.2l.079-.122h.2V39.9a.345.345,0,0,1,.242-.081v-.081l.24-.041v-.081c.108-.03.091-.009.12-.12h.081l.04-.283-.12-.081v-.363c-.041-.026-.081-.054-.12-.081v-.283c-.041-.026-.081-.053-.12-.081v-.242l-.081-.04-.04-.243-.081-.04c-.013-.067-.028-.135-.041-.2-.1-.026-.075-.011-.12-.081H117.9l-.04.081-.24.041c-.013.026-.028.053-.041.081h-.24s0,.025-.079.04V37.8a.733.733,0,0,0-.321.041l-.041.081h-.361V38h-.081v.041h-.481l-.041.081a5.03,5.03,0,0,1-1.484,0v-.081h-.361c-.026-.041-.054-.081-.081-.122h-.2l-.081-.122h-.079l-.041-.081-.12-.04v-.041a.436.436,0,0,0-.2-.12.447.447,0,0,0-.12-.2h-.04v-.081l-.081-.041-.04-.161-.081-.04v-.2l-.12-.081V36.39h-.081v-.122c.046-.034.007.005.041-.04h6.217v-.041a.378.378,0,0,1,.161-.081q.02-.4.04-.807h.04v-.081h.041v-.242l-.081-.04Zm-3.089-.041a.311.311,0,0,0-.12.081h-3.169a.713.713,0,0,0-.12-.12l.04-.283c.028-.013.054-.026.081-.041v-.4l.12-.081v-.2c.04-.026.081-.053.12-.081V32.92c.041-.026.081-.053.12-.081v-.081c.074-.1.156-.067.2-.242.11-.03.091-.009.12-.122a.313.313,0,0,0,.2-.081v-.04h.161l.079-.122h1.083c.026.041.054.081.081.122h.2c.03.11.009.091.12.12v.081c.108.032.091.011.12.122h.081v.04c.083.073.025.082.16.122v.2h.081l.04.242.081.04v.081h.04v.363l.081.041a1.482,1.482,0,0,1,0,.484m31.692.283h-.041v-.524h-.04v-.363l-.081-.04v-.4l-.081-.04c-.052-.094.007-.2-.04-.322h-.04V32.72c-.026-.015-.054-.028-.081-.041v-.242h-.04c-.07-.106-.075-.1-.081-.283h-.081l-.04-.2h-.081l-.04-.2h-.081c-.036-.17-.123-.217-.16-.363h-.081a.316.316,0,0,0-.081-.161h-.04c-.077-.111-.046-.164-.2-.2-.03-.11-.009-.091-.12-.12-.044-.165-.017-.05-.12-.122v-.04l-.12-.041v-.081c-.041-.013-.081-.026-.12-.041-.028-.04-.054-.081-.081-.12h-.081l-.04-.081c-.131-.077-.1.071-.161-.122-.181-.007-.174-.008-.28-.081v-.04l-.24-.041v-.081a.717.717,0,0,1-.321-.041c-.015-.026-.028-.053-.041-.081h-.32v-.04c-.054-.013-.108-.026-.161-.041v-.04h-2.167v.04l-.16.041v.04h-.321v.041h-.081l-.04.081h-.281V30.1l-.24.041-.04.081h-.081v.04h-.12V30.3a.33.33,0,0,1-.24.081v.081c-.161.038-.2.127-.362.161V30.7c-.108.03-.091.009-.12.122h-.079c-.028.04-.054.081-.081.12h-.081l-.2.242h-.04v.082h-.081c-.037.137-.085.1-.12.242-.168.046-.126.114-.2.242H139v.081l-.12.081v.081l-.081.081v.081h-.04v.081l-.081.041v.12h-.04v.081l-.081.041v.161h-.04v.081l-.081.041V33s-.029.008-.041.081h-.079v.324c-.04.026-.081.053-.12.081v.444h-.041l-.04.161h-.04V36.47l.079.04v.081h.041v.444c.04.028.081.054.12.081V37.4l.079.041v.081h.041v.2l.081.041.04.2.081.04.04.2.081.04.04.2h.081c.049.185.2.272.24.444.162.049.046.024.12.12l.081.041.28.322h.081c.03.11.009.092.12.122v.081c.149.041.18.127.362.161v.081h.079c.013.026.026.054.041.081l.2.04v.041h.041v.081a.344.344,0,0,1,.24.081v.041h.2v.04h.079c.015.026.028.054.041.081h.24v.041h.081l.04.081h.281v.04h.079V40.5l.642.04v.041h.081v.041h1.684v-.041h.081v-.041h.441V40.5h.281v-.041h.079v-.04h.321v-.041h.12c.015-.026.028-.053.041-.081h.321l.079-.12h.242l.079-.122h.2l.04-.081.242-.041.04-.081.24-.04v-.081l.2-.041v-.081c.128-.034.141-.1.24-.161a.793.793,0,0,0-.04-.322h-.041v-.081h-.04v-.324l-.081-.04v-.081h-.04v-.242l-.081-.041a.725.725,0,0,1-.04-.322h-.081c-.016-.085-.038-.078-.04-.081v-.2h-.04a.35.35,0,0,1-.081-.161h-.081v-.081h-.361l-.041.081h-.12V37.6h-.12l-.04.081h-.2v.04h-.081l-.04.081h-.24c-.013.028-.026.054-.041.082h-.079v.04h-.321c-.015.026-.028.054-.041.081h-.079v.041h-.482l-.04.081h-.2a4.026,4.026,0,0,1-1.284,0v-.081l-.4-.041c-.013-.026-.026-.054-.041-.081h-.16c-.026-.04-.054-.081-.081-.122h-.12c-.026-.04-.053-.081-.081-.12h-.079v-.041c-.041-.026-.081-.053-.12-.081-.114-.114-.156-.313-.321-.363a.315.315,0,0,0-.081-.242h-.04v-.2l-.122-.081v-.444h6.178v-.041a.385.385,0,0,1,.161-.081l.04-.4.081-.041V34.574h-.04Zm-3.13-.242c-.045.034-.005-.005-.04.04h-3.209a.769.769,0,0,0-.12-.12v-.2l.079-.04v-.4s.028,0,.041-.081h.081V33.2c.04-.026.079-.054.12-.081v-.161l.079-.041c.015-.053.028-.107.041-.161.108-.03.091-.009.12-.122h.081c.03-.11.009-.091.12-.12.04-.139.133-.133.2-.242h.2V32.2a5.256,5.256,0,0,1,.843-.041h.281V32.2c.106.07.1.073.28.081.054.192.036.048.16.12.019.011.033.058.081.081v.081h.081l.04.163c.081.024.034-.007.081.04h.041v.161h.04a.334.334,0,0,1,.079.283h.081c.013.135.028.268.041.4l.079.041v.2c.008.071.041.082.041.082-.015.107-.028.214-.041.322m14.443-.807h-.041V32.72h-.04c-.013-.054-.028-.108-.041-.163h-.04V32.2h-.081l-.04-.324-.081-.04-.04-.2-.081-.04v-.161c-.04-.028-.081-.054-.12-.081v-.122l-.081-.041a.937.937,0,0,1-.16-.281h-.081c-.03-.11-.009-.092-.12-.122-.03-.11-.009-.091-.12-.12v-.082c-.137-.037-.1-.085-.24-.12V30.38c-.164-.046-.1-.111-.321-.122-.013-.04-.026-.081-.041-.12-.079-.015-.16-.028-.24-.041l-.04-.081c-.081-.013-.161-.026-.24-.041-.013-.026-.028-.053-.041-.081h-.321v-.04h-.079l-.041-.081h-1.844l-.041.081h-.081v.04h-.24v.041h-.079l-.041.081h-.2l-.079.122h-.161l-.04.081-.161.04-.079.122h-.122c-.192.108-.275.34-.521.4v.041l-.161-.041v-.524h-.04a.347.347,0,0,1-.081-.242l-.4-.041c-.015-.026-.028-.053-.041-.081h-1.684l-.04.081-.482.041V30.1l-.079.041v.443l.04.687v.4h.04v.081h.04v6.212A15.028,15.028,0,0,0,149.8,40.3a.37.37,0,0,1,.2.041v.04h.081v.041h2.486l.04-.081c.067-.013.135-.026.2-.041l.041-.12h.079V33.364h.041V33.2l.081-.041v-.2s.024,0,.04-.081h.079v-.122c.11-.03.092-.009.122-.122a.352.352,0,0,0,.16-.081v-.04h.16c.028-.041.054-.081.081-.122h.4v-.081l.6-.04v.04h.242l.04.081h.281l.079.122h.12c.028.04.054.081.081.12.04.015.081.028.12.041v.081h.081l.04.2c.04.026.081.053.12.081v.444l.081.04.04,2.017V40.3a.89.89,0,0,1,.321.081v.041h2.488v-.041a.31.31,0,0,1,.24-.081c.052-.575.041-1.3.041-1.935Zm18.252,3.187h-.04v-.363l-.081-.04v-.161h-.04v-.122h-.041a.386.386,0,0,1-.04-.2l-.12-.04c-.03-.21-.1-.115-.12-.324-.11-.03-.091-.009-.12-.12-.11-.03-.091-.009-.12-.122h-.081v-.081h-.04c-.073-.083-.082-.025-.122-.161-.209-.029-.114-.1-.32-.12V34.7c-.189-.041-.242-.143-.443-.162v-.081l-.24-.04v-.081a.59.59,0,0,1-.321-.081v-.041h-.2s.007-.025-.081-.04v-.081a.816.816,0,0,1-.361-.041c-.015-.026-.028-.054-.041-.081h-.28v-.04h-.081l-.04-.082H173.7c-.026-.04-.053-.081-.081-.12h-.28c-.013-.026-.026-.054-.041-.081h-.16v-.041h-.12c-.013-.026-.026-.054-.041-.081h-.12v-.04h-.12l-.04-.081h-.081l-.12-.163-.12-.04v-.122h-.04c-.053-.092.016-.057-.081-.12a.557.557,0,0,1,.12-.4h.04l-.04-.081h.04l.161-.2h.12l.04-.081h.081v-.041h.281v-.04h.079v-.041a2.081,2.081,0,0,1,.723-.041v.041h.2l.04.081h.441l.04.081h.081v.041h.24v.04h.081l.04.081h.161v.041h.081l.04.081h.12l.04.081h.081v.04h.081l.04.082h.362v-.082c.108-.03.091-.009.12-.12.108-.03.091-.009.12-.122h.079c.014-.067.028-.133.041-.2l.081-.041.04-.161.081-.041v-.12c.04-.028.079-.054.12-.081V31.59h.04a.333.333,0,0,0,.081-.242h.081c.024-.081-.007-.036.04-.081v-.524c-.04-.015-.081-.028-.12-.041v-.081l-.2-.041V30.5l-.2-.04V30.38c-.2-.025-.277-.126-.481-.161v-.081a.51.51,0,0,1-.281-.041l-.04-.081h-.281v-.041h-.079c-.013-.026-.028-.053-.041-.081h-.4c-.015-.026-.028-.053-.041-.081h-.12v-.04H172.42v.04l-.16.041v.04H171.9c-.028.041-.054.081-.081.122h-.281v.041c-.106.07-.1.074-.28.081-.013.04-.026.081-.041.12h-.2c-.015.041-.028.081-.041.122h-.16v.081a.827.827,0,0,0-.482.363h-.079c-.03.11-.009.091-.12.12-.032.11-.011.092-.12.122-.032.11-.011.091-.122.12a.307.307,0,0,1-.079.2h-.041v.122h-.04v.04h-.081c-.013.165-.013.143-.081.242h-.04v.2l-.081.04-.04.4h-.081v.645a.108.108,0,0,0-.04.122s.034.009.04.081v.524l.081.04v.243h.04v.12l.081.041v.2h.04a.343.343,0,0,1,.081.243c.081.024.034-.007.081.04h.04v.122h.081l.04.12.122.081v.081h.04c.056.061.021.053.12.081V35.3c.176.05.225.2.4.243v.081c.214.026.226.14.441.161v.081c.2.025.277.126.481.161v.081a.72.72,0,0,1,.321.041l.04.081h.24v.04h.081l.04.081h.281l.04.081h.122v.041h.24l.04.081.361.04c.015.028.028.054.041.082h.2v.04h.079l.041.081.24.041.04.081h.081l.081.12c.04.015.079.028.12.041.073.092.059.177.16.242v.322l-.079.041c-.015.053-.028.107-.041.161h-.04c-.041.054-.081.107-.12.161-.067.013-.135.026-.2.041v.081c-.036.007-.328.026-.361.04l-.041.081h-.2v.041a2.574,2.574,0,0,1-.842-.041l-.041-.081h-.441l-.079-.12h-.281c-.026-.041-.053-.081-.081-.122h-.2c-.028-.04-.054-.081-.081-.122H171.1v-.04h-.079l-.041-.081h-.12l-.04-.081h-.081v-.041h-.081l-.04-.081h-.081v-.04c-.089-.055-.055.017-.12-.081h-.28c-.015.026-.028.053-.041.081-.108.1-.207.144-.24.322h-.081v.122l-.12.04-.04.2-.081.04v.122l-.081.04-.04.162-.081.04-.04.161-.081.04v.122h-.04v.081l-.081.041v.4h.081c.03.11.009.092.12.122v.081c.147.04.2.128.361.161v.081a.335.335,0,0,1,.24.081v.04h.161c.026.041.053.082.081.122h.16c.026.041.054.081.081.122h.24l.081.12h.28c.013.028.026.054.041.081l.4.041v.04h.081V40.5h.28v.04h.362v.041h.12v.041h1.605v-.041h.079v-.041l.642-.04.04-.081h.281v-.041a.929.929,0,0,1,.4-.081v-.081a1.218,1.218,0,0,1,.28-.04c.024-.081-.005-.036.04-.081V40.06h.161v-.04a.328.328,0,0,1,.16-.082v-.081a1.314,1.314,0,0,0,.723-.686h.081v-.12l.12-.041.04-.2.081-.041v-.12c.026-.015.053-.028.081-.041v-.081h.04v-.161l.081-.041v-.081h.04V38l.081-.04v-.324a3.756,3.756,0,0,0,.04-1.008m-41.319-6.615-.481-.041c-.013-.026-.028-.053-.041-.081h-1.8c-.094.147-.317.131-.561.122-.034.045.005.007-.041.041v10.2l.122.04v.041l.16.04v.041H135.8v-.041a.877.877,0,0,1,.321-.081c.034-.045-.005-.005.04-.04V30.138a.79.79,0,0,1-.12-.122" transform="translate(22.624 1.494)" fill="#1d1d1b" fill-rule="evenodd"/>
    <path id="Path_184" data-name="Path 184" d="M57.272,28.981c-.122.049-.2.209-.292.308a3.362,3.362,0,0,1-2.582.931l-5.039-.03a3.665,3.665,0,0,1-2.21-1.089l-.005,1.07H35.437l-.005-1.358a3.485,3.485,0,0,1-2.842,1.328l-5.282-.02a2.637,2.637,0,0,1-2.6-1.378l0,1.378H7.893l0-13.086A3.115,3.115,0,0,1,9.958,14.2a8.48,8.48,0,0,1,2.218-.188l9.594.011a3.448,3.448,0,0,1,2.4,1.326l.005-1.326h1.135c.071-.05-.115-.111-.026-.152a6.078,6.078,0,0,1-.793-1.357A2.986,2.986,0,0,1,25.288,9.4a3.225,3.225,0,0,1,2.944-.695,4.107,4.107,0,0,1,1.809,1.141l.119-.021a3.235,3.235,0,0,1,3.535-1,3.905,3.905,0,0,1,1.687,1.189l0-2.716H47c.011,2.7,0,8.088,0,8.088.732-1.144,2-1.28,3.292-1.292,1.027-.009,3.7-.032,4.043-.007a3.5,3.5,0,0,1,3.147,1.8" transform="translate(2.457 2.269)" fill="#1d1d1b"/>
    <path id="Path_185" data-name="Path 185" d="M57.514,28.5a6.481,6.481,0,0,1-.535.794,3.358,3.358,0,0,1-2.58.931l-5.039-.029a3.674,3.674,0,0,1-2.21-1.09l-.005,1.07H35.436l-.005-1.358a3.483,3.483,0,0,1-2.84,1.328l-5.282-.018a2.644,2.644,0,0,1-2.6-1.378l.005,1.378H7.893L7.888,17.036A3.118,3.118,0,0,1,9.957,14.2a8.495,8.495,0,0,1,2.22-.188l9.594.011a3.448,3.448,0,0,1,2.4,1.326l0-1.326h1.136c.071-.05-.115-.111-.026-.151a6.122,6.122,0,0,1-.794-1.358A2.989,2.989,0,0,1,25.289,9.4a3.228,3.228,0,0,1,2.944-.694,4.1,4.1,0,0,1,1.807,1.14l.12-.02a3.234,3.234,0,0,1,3.535-1,3.913,3.913,0,0,1,1.687,1.189l0-2.716H47C47.015,10,47,15.389,47,15.389c.733-1.144,2-1.282,3.294-1.293,1.027-.009,3.7-.032,4.041-.007A3.5,3.5,0,0,1,57.482,15.9s-.062,12.694.032,12.6" transform="translate(2.457 2.269)" fill="#1d1d1b"/>
    <path id="Path_186" data-name="Path 186" d="M57.514,28.5a6.481,6.481,0,0,1-.535.794,3.358,3.358,0,0,1-2.58.931l-5.039-.029a3.674,3.674,0,0,1-2.21-1.09l-.005,1.07H35.436l-.005-1.358a3.483,3.483,0,0,1-2.84,1.328l-5.282-.018a2.644,2.644,0,0,1-2.6-1.378l.005,1.378H7.893L7.888,17.036A3.118,3.118,0,0,1,9.957,14.2a8.495,8.495,0,0,1,2.22-.188l9.594.011a3.448,3.448,0,0,1,2.4,1.326l0-1.326h1.136c.071-.05-.115-.111-.026-.151a6.122,6.122,0,0,1-.794-1.358A2.989,2.989,0,0,1,25.289,9.4a3.228,3.228,0,0,1,2.944-.694,4.1,4.1,0,0,1,1.807,1.14l.12-.02a3.234,3.234,0,0,1,3.535-1,3.913,3.913,0,0,1,1.687,1.189l0-2.716H47C47.015,10,47,15.389,47,15.389c.733-1.144,2-1.282,3.294-1.293,1.027-.009,3.7-.032,4.041-.007A3.5,3.5,0,0,1,57.482,15.9S57.42,28.589,57.514,28.5Z" transform="translate(2.457 2.269)" fill="none" stroke="#262020" stroke-linecap="square"/>
    <rect id="Rectangle_152" data-name="Rectangle 152" width="4.558" height="21.515" transform="translate(38.61 10.261)" fill="#fff"/>
    <rect id="Rectangle_153" data-name="Rectangle 153" width="4.558" height="21.515" transform="translate(38.61 10.261)" fill="#fff"/>
    <rect id="Rectangle_154" data-name="Rectangle 154" width="4.558" height="21.515" transform="translate(38.61 10.261)" fill="none" stroke="#fff" stroke-linecap="square"/>
    <rect id="Rectangle_155" data-name="Rectangle 155" width="4.559" height="21.533" transform="translate(44.104 10.243)" fill="#fff"/>
    <rect id="Rectangle_156" data-name="Rectangle 156" width="4.559" height="21.533" transform="translate(44.104 10.243)" fill="#fff"/>
    <rect id="Rectangle_157" data-name="Rectangle 157" width="4.559" height="21.533" transform="translate(44.104 10.243)" fill="none" stroke="#fff" stroke-linecap="square"/>
    <path id="Path_187" data-name="Path 187" d="M25.21,9.794A2.3,2.3,0,0,1,25.4,12.1a2.389,2.389,0,0,1-2.168,1.34,2.455,2.455,0,0,1-2.169-1.459A2.4,2.4,0,0,1,21.3,9.773a2.5,2.5,0,0,1,2.389-.951,2.418,2.418,0,0,1,1.517.972" transform="translate(6.633 2.749)" fill="#fff"/>
    <path id="Path_188" data-name="Path 188" d="M25.21,9.794A2.3,2.3,0,0,1,25.4,12.1a2.389,2.389,0,0,1-2.168,1.34,2.455,2.455,0,0,1-2.169-1.459A2.4,2.4,0,0,1,21.3,9.773a2.5,2.5,0,0,1,2.389-.951,2.418,2.418,0,0,1,1.517.972" transform="translate(6.633 2.749)" fill="#fff"/>
    <path id="Path_189" data-name="Path 189" d="M25.21,9.794A2.3,2.3,0,0,1,25.4,12.1a2.389,2.389,0,0,1-2.168,1.34,2.455,2.455,0,0,1-2.169-1.459A2.4,2.4,0,0,1,21.3,9.773a2.5,2.5,0,0,1,2.389-.951A2.418,2.418,0,0,1,25.21,9.794Z" transform="translate(6.633 2.749)" fill="none" stroke="#fff" stroke-linecap="square"/>
    <path id="Path_190" data-name="Path 190" d="M29.356,10.19a2.364,2.364,0,0,1-.272,2.381,2.354,2.354,0,0,1-4.1-.684,2.394,2.394,0,0,1,.361-2.192,2.479,2.479,0,0,1,2.32-.834,2.407,2.407,0,0,1,1.687,1.329" transform="translate(7.91 2.759)" fill="#fff"/>
    <path id="Path_191" data-name="Path 191" d="M29.356,10.19a2.364,2.364,0,0,1-.272,2.381,2.354,2.354,0,0,1-4.1-.684,2.394,2.394,0,0,1,.361-2.192,2.479,2.479,0,0,1,2.32-.834,2.407,2.407,0,0,1,1.687,1.329" transform="translate(7.91 2.759)" fill="#fff"/>
    <path id="Path_192" data-name="Path 192" d="M29.356,10.19a2.364,2.364,0,0,1-.272,2.381,2.354,2.354,0,0,1-4.1-.684,2.394,2.394,0,0,1,.361-2.192,2.479,2.479,0,0,1,2.32-.834A2.407,2.407,0,0,1,29.356,10.19Z" transform="translate(7.91 2.759)" fill="none" stroke="#fff" stroke-linecap="square"/>
    <path id="Path_193" data-name="Path 193" d="M21.69,12.925a2.385,2.385,0,0,1,1.637,1.05,3.846,3.846,0,0,1,.412,1.834v11.8H19.234l0-10.926a.552.552,0,0,0-.382-.447.519.519,0,0,0-.341.09c-.172.12-.152.317-.211.476L18.29,27.607H13.812l0-10.946a.569.569,0,0,0-.262-.377c-.131,0-.271-.108-.392,0a.72.72,0,0,0-.26.4L12.9,27.587H8.44l0-12.133a2.7,2.7,0,0,1,1.185-2.222,2.732,2.732,0,0,1,1.2-.328Z" transform="translate(2.633 4.069)" fill="#fff"/>
    <path id="Path_194" data-name="Path 194" d="M21.69,12.925a2.385,2.385,0,0,1,1.637,1.05,3.846,3.846,0,0,1,.412,1.834v11.8H19.234l0-10.926a.552.552,0,0,0-.382-.447.519.519,0,0,0-.341.09c-.172.12-.152.317-.211.476L18.29,27.607H13.812l0-10.946a.569.569,0,0,0-.262-.377c-.131,0-.271-.108-.392,0a.72.72,0,0,0-.26.4L12.9,27.587H8.44l0-12.133a2.7,2.7,0,0,1,1.185-2.222,2.732,2.732,0,0,1,1.2-.328Z" transform="translate(2.633 4.069)" fill="none" stroke="#fff" stroke-linecap="square"/>
    <path id="Path_195" data-name="Path 195" d="M25.406,23.87a.621.621,0,0,0,.332.427.582.582,0,0,0,.551-.119.857.857,0,0,0,.2-.733V12.905h4.5l-.02,12.443a2.508,2.508,0,0,1-1.426,2.122,3.325,3.325,0,0,1-1.054.189l-5.4-.03a2.359,2.359,0,0,1-1.828-.922,2.892,2.892,0,0,1-.443-1.358l.005-12.443H25.4Z" transform="translate(6.608 4.069)" fill="#fff"/>
    <path id="Path_196" data-name="Path 196" d="M25.406,23.87a.621.621,0,0,0,.332.427.582.582,0,0,0,.551-.119.857.857,0,0,0,.2-.733V12.905h4.5l-.02,12.443a2.508,2.508,0,0,1-1.426,2.122,3.325,3.325,0,0,1-1.054.189l-5.4-.03a2.359,2.359,0,0,1-1.828-.922,2.892,2.892,0,0,1-.443-1.358l.005-12.443H25.4Z" transform="translate(6.608 4.069)" fill="#fff"/>
    <path id="Path_197" data-name="Path 197" d="M25.406,23.87a.621.621,0,0,0,.332.427.582.582,0,0,0,.551-.119.857.857,0,0,0,.2-.733V12.905h4.5l-.02,12.443a2.508,2.508,0,0,1-1.426,2.122,3.325,3.325,0,0,1-1.054.189l-5.4-.03a2.359,2.359,0,0,1-1.828-.922,2.892,2.892,0,0,1-.443-1.358l.005-12.443H25.4Z" transform="translate(6.608 4.069)" fill="none" stroke="#fff" stroke-linecap="square"/>
    <path id="Path_198" data-name="Path 198" d="M45.189,12.977c.945.164,1.793.523,1.962,1.221a4.564,4.564,0,0,1,.285,2.077V20.36H42.084c.02.823,0,3.539,0,3.539.05.119.111.322.242.362a.524.524,0,0,0,.653-.015c.23-.178.211-.457.242-.715V21.223h4.212l0,4.3A2.44,2.44,0,0,1,45.82,27.6l-.893.12L39.816,27.7a2.355,2.355,0,0,1-1.809-1.12,3.759,3.759,0,0,1-.4-2.023l.021-9.379a2.437,2.437,0,0,1,1.566-2.041,3.879,3.879,0,0,1,.674-.155c.336-.05,4.949-.065,5.323,0" transform="translate(12 4.079)" fill="#fff"/>
    <path id="Path_199" data-name="Path 199" d="M45.189,12.977c.945.164,1.793.523,1.962,1.221a4.564,4.564,0,0,1,.285,2.077V20.36H42.084c.02.823,0,3.539,0,3.539.05.119.111.322.242.362a.524.524,0,0,0,.653-.015c.23-.178.211-.457.242-.715V21.223h4.212l0,4.3A2.44,2.44,0,0,1,45.82,27.6l-.893.12L39.816,27.7a2.355,2.355,0,0,1-1.809-1.12,3.759,3.759,0,0,1-.4-2.023l.021-9.379a2.437,2.437,0,0,1,1.566-2.041,3.879,3.879,0,0,1,.674-.155c.336-.05,4.949-.065,5.323,0" transform="translate(12 4.079)" fill="#fff"/>
    <path id="Path_200" data-name="Path 200" d="M45.189,12.977c.945.164,1.793.523,1.962,1.221a4.564,4.564,0,0,1,.285,2.077V20.36H42.084c.02.823,0,3.539,0,3.539.05.119.111.322.242.362a.524.524,0,0,0,.653-.015c.23-.178.211-.457.242-.715V21.223h4.212l0,4.3A2.44,2.44,0,0,1,45.82,27.6l-.893.12L39.816,27.7a2.355,2.355,0,0,1-1.809-1.12,3.759,3.759,0,0,1-.4-2.023l.021-9.379a2.437,2.437,0,0,1,1.566-2.041,3.879,3.879,0,0,1,.674-.155C40.2,12.928,44.815,12.914,45.189,12.977Z" transform="translate(12 4.079)" fill="none" stroke="#fff" stroke-linecap="square"/>
    <path id="Path_201" data-name="Path 201" d="M42.009,15.781l.07.308v2.5H41L41,15.93a.621.621,0,0,1,.461-.436.6.6,0,0,1,.552.287" transform="translate(13.089 4.9)" fill="#262020"/>
    <path id="Path_202" data-name="Path 202" d="M42.009,15.781l.07.308v2.5H41L41,15.93a.621.621,0,0,1,.461-.436.6.6,0,0,1,.552.287" transform="translate(13.089 4.9)" fill="#1d1d1b"/>
    <path id="Path_203" data-name="Path 203" d="M42.009,15.781l.07.308v2.5H41L41,15.93a.621.621,0,0,1,.461-.436A.6.6,0,0,1,42.009,15.781Z" transform="translate(13.089 4.9)" fill="none" stroke="#262020" stroke-linecap="square"/>
    <path id="Path_204" data-name="Path 204" d="M45.906,13.955V27.663h4.269V16.24a5.34,5.34,0,0,1,1.443-.661,5.822,5.822,0,0,1,1.444-.24V12.513a9.482,9.482,0,0,0-2.887-.12,13.53,13.53,0,0,0-4.269,1.563" transform="translate(14.666 3.881)" fill="#fff"/>
    <path id="Path_205" data-name="Path 205" d="M45.906,13.955V27.663h4.269V16.24a5.34,5.34,0,0,1,1.443-.661,5.822,5.822,0,0,1,1.444-.24V12.513a9.482,9.482,0,0,0-2.887-.12A13.53,13.53,0,0,0,45.906,13.955Z" transform="translate(14.666 3.881)" fill="none" stroke="#1d1d1b" stroke-width="1.424"/>
    <path id="Path_206" data-name="Path 206" d="M45.906,13.955V27.663h4.269V16.24a5.34,5.34,0,0,1,1.443-.661,5.822,5.822,0,0,1,1.444-.24V12.513a9.482,9.482,0,0,0-2.887-.12,13.53,13.53,0,0,0-4.269,1.563" transform="translate(14.666 3.881)" fill="#fff"/>
  </g>
</svg>
