<svg id="Facebook" xmlns="http://www.w3.org/2000/svg" width="38.883" height="36.744" viewBox="0 0 38.883 36.744">
  <path id="Path_1107" data-name="Path 1107" d="M-17822.8-10190.086c14.617,1.6,7.625-4.874,14.438-5.984s22.4,12.021,13,22.793-22.672,19.148-28.662,9.927S-17837.42-10191.689-17822.8-10190.086Z" transform="translate(17831.303 10196.137)" fill="#da291c"/>
  <path id="Path_1106" data-name="Path 1106" d="M28.188,14.148H26.652a1.734,1.734,0,0,0-.389-.008,1.76,1.76,0,0,0-1.6,1.91v2.284h3.377l-.54,3.519H24.672v8.508H20.863V21.853H17.772v-3.52h3.091V15.651c0-3.052,1.818-4.737,4.6-4.737a18.715,18.715,0,0,1,2.725.237Z" transform="translate(-4.544 -1.362)" fill="#fff"/>
</svg>
