<svg id="Instagram" xmlns="http://www.w3.org/2000/svg" xmlns:xlink="http://www.w3.org/1999/xlink" width="41.088" height="36.745" viewBox="0 0 41.088 36.745">
  <defs>
    <clipPath id="clip-path">
      <rect id="Rectangle_434" data-name="Rectangle 434" width="41.088" height="36.745" fill="#da291c"/>
    </clipPath>
  </defs>
  <g id="Group_600" data-name="Group 600">
    <g id="Group_599" data-name="Group 599" clip-path="url(#clip-path)">
      <path id="Path_716" data-name="Path 716" d="M30.578,16.022a3.319,3.319,0,0,0-1.865-1.865c-1.288-.508-4.357-.394-5.784-.394s-4.491-.119-5.783.394a3.315,3.315,0,0,0-1.865,1.865c-.508,1.287-.394,4.357-.394,5.783s-.119,4.492.394,5.783a3.311,3.311,0,0,0,1.862,1.865c1.286.508,4.357.394,5.783.394s4.492.119,5.783-.394a3.316,3.316,0,0,0,1.87-1.865c.512-1.288.392-4.357.392-5.783s.119-4.492-.393-5.783M22.929,26.835a5.03,5.03,0,1,1,0-10.061h.016a5.03,5.03,0,0,1-.016,10.061M29.34,16.568h0a.947.947,0,1,1,0-.006Z" transform="translate(-2.714 -2.509)" fill="#da291c"/>
      <path id="Path_717" data-name="Path 717" d="M24,19.6a3.27,3.27,0,1,0,3.27,3.27A3.27,3.27,0,0,0,24,19.6" transform="translate(-3.781 -3.577)" fill="#da291c"/>
      <path id="Path_718" data-name="Path 718" d="M24.347,3.2c-12.983-7.818-14.5.444-21.49,6.2s1.307,5.182-.735,16.745,16.33,14.158,31.7,5.349,3.5-20.475-9.48-28.294m5.61,20.141a5.842,5.842,0,0,1-1.585,4.111,5.808,5.808,0,0,1-4.112,1.585c-1.618.092-6.474.092-8.094,0a5.851,5.851,0,0,1-4.111-1.585,5.8,5.8,0,0,1-1.585-4.111c-.092-1.618-.092-6.474,0-8.094a5.828,5.828,0,0,1,1.585-4.111,5.84,5.84,0,0,1,4.111-1.58c1.618-.092,6.474-.092,8.094,0a5.842,5.842,0,0,1,4.111,1.585,5.8,5.8,0,0,1,1.585,4.111v-.006c.092,1.623.092,6.474,0,8.094" transform="translate(0 0)" fill="#da291c"/>
    </g>
  </g>
</svg>
