<svg xmlns="http://www.w3.org/2000/svg" xmlns:xlink="http://www.w3.org/1999/xlink" width="19.261" height="30.155" viewBox="0 0 19.261 30.155"><defs><clipPath id="a"><rect width="19.261" height="30.155" fill="none"/></clipPath></defs><g clip-path="url(#a)"><path d="M0,21.13c0-5.962,4.312-10.8,9.631-10.8s9.63,4.833,9.63,10.8-9.63,18.584-9.63,18.584S0,27.092,0,21.13" transform="translate(0 -9.559)" fill="#da291c"/><line y2="1.973" transform="translate(7.623 20.558)" fill="#fff"/><line y2="1.973" transform="translate(7.623 20.558)" fill="none"/><line y2="1.973" transform="translate(8.973 20.558)" fill="#fff"/><line y2="1.973" transform="translate(8.973 20.558)" fill="none"/><line y2="1.973" transform="translate(10.324 20.558)" fill="#fff"/><line y2="1.973" transform="translate(10.324 20.558)" fill="none"/><line y2="1.973" transform="translate(11.674 20.558)" fill="#fff"/><line y2="1.973" transform="translate(11.674 20.558)" fill="none"/><path d="M81.232,91.331a3.545,3.545,0,1,1,3.545,3.545,3.545,3.545,0,0,1-3.545-3.545" transform="translate(-75.136 -81.198)" fill="#fff"/></g></svg>