<svg xmlns="http://www.w3.org/2000/svg" width="43.665" height="41.763" viewBox="0 0 43.665 41.763"><path d="M423.221,299.995l3.522,10.84a2.381,2.381,0,0,0,2.264,1.645h11.4a2.38,2.38,0,0,1,1.4,4.3l-9.222,6.7a2.379,2.379,0,0,0-.864,2.661l3.522,10.841a2.38,2.38,0,0,1-3.662,2.661l-9.222-6.7a2.38,2.38,0,0,0-2.8,0l-9.221,6.7a2.381,2.381,0,0,1-3.663-2.661l3.523-10.841a2.381,2.381,0,0,0-.865-2.661l-9.221-6.7a2.38,2.38,0,0,1,1.4-4.3h11.4a2.381,2.381,0,0,0,2.264-1.645l3.522-10.84A2.38,2.38,0,0,1,423.221,299.995Z" transform="translate(-399.125 -298.35)" fill="#efb200"/></svg>