<svg id="Twitter" xmlns="http://www.w3.org/2000/svg" width="43.291" height="43.292" viewBox="0 0 43.291 43.292">
  <path id="Path_1109" data-name="Path 1109" d="M35.954,9.021l-6.289-.848A11.5,11.5,0,0,1,23.76,5.543L18.922,1.437a6.045,6.045,0,0,0-9.9,3.8l-.845,6.287a11.5,11.5,0,0,1-2.631,5.908L1.437,22.268a6.045,6.045,0,0,0,3.8,9.9l6.29.847a11.5,11.5,0,0,1,5.906,2.629l4.836,4.109a6.045,6.045,0,0,0,9.9-3.8l.848-6.289a11.493,11.493,0,0,1,2.629-5.905l4.106-4.837a6.045,6.045,0,0,0-3.8-9.9" transform="translate(0 2.156) rotate(-3)" fill="#da291c"/>
  <path id="Path_1108" data-name="Path 1108" d="M38.211,25.893c.013.182.013.363.013.545A11.841,11.841,0,0,1,26.465,38.361H26.3a11.845,11.845,0,0,1-6.435-1.881,8.692,8.692,0,0,0,1.012.052,8.392,8.392,0,0,0,5.2-1.791,4.2,4.2,0,0,1-3.918-2.906,5.216,5.216,0,0,0,.791.065,4.415,4.415,0,0,0,1.1-.143,4.191,4.191,0,0,1-3.36-4.113V27.6a4.223,4.223,0,0,0,1.895.532,4.2,4.2,0,0,1-1.3-5.6,11.912,11.912,0,0,0,8.64,4.385,4.739,4.739,0,0,1-.1-.96,4.195,4.195,0,0,1,7.252-2.867,8.237,8.237,0,0,0,2.66-1.012A4.177,4.177,0,0,1,37.9,24.375a8.392,8.392,0,0,0,2.413-.649,8.993,8.993,0,0,1-2.1,2.167" transform="translate(-7.59 -8.413)" fill="#fff"/>
</svg>
